<?xml version="1.0" encoding="UTF-8" standalone="no"?>
<!-- Created with Inkscape (http://www.inkscape.org/) -->

<svg
   xmlns:dc="http://purl.org/dc/elements/1.1/"
   xmlns:cc="http://creativecommons.org/ns#"
   xmlns:rdf="http://www.w3.org/1999/02/22-rdf-syntax-ns#"
   xmlns:svg="http://www.w3.org/2000/svg"
   xmlns="http://www.w3.org/2000/svg"
   xmlns:xlink="http://www.w3.org/1999/xlink"
   version="1.1"
   width="67"
   height="55"
   id="svg2">
  <defs
     id="defs4">
    <linearGradient
       id="linearGradient3944">
      <stop
         id="stop3946"
         style="stop-color:#ffffff;stop-opacity:1"
         offset="0" />
      <stop
         id="stop3948"
         style="stop-color:#ffffff;stop-opacity:0"
         offset="1" />
    </linearGradient>
    <linearGradient
       id="linearGradient3922">
      <stop
         id="stop3924"
         style="stop-color:#f89c0d;stop-opacity:1"
         offset="0" />
      <stop
         id="stop3926"
         style="stop-color:#f7d254;stop-opacity:1"
         offset="1" />
    </linearGradient>
    <linearGradient
       x1="42.560535"
       y1="38.727627"
       x2="42.560535"
       y2="2.5805359"
       id="linearGradient3928"
       xlink:href="#linearGradient3922"
       gradientUnits="userSpaceOnUse"
       gradientTransform="matrix(0.97788434,0,0,1.0223907,-0.43547947,-0.34289992)" />
    <linearGradient
       x1="37.585342"
       y1="-10.094367"
       x2="37.585342"
       y2="23.611982"
       id="linearGradient3950"
       xlink:href="#linearGradient3944"
       gradientUnits="userSpaceOnUse" />
    <filter
       color-interpolation-filters="sRGB"
       id="filter3994">
      <feGaussianBlur
         id="feGaussianBlur3996"
         stdDeviation="1.2726793" />
    </filter>
    <linearGradient
       x1="37.585342"
       y1="-10.094367"
       x2="37.585342"
       y2="23.611982"
       id="linearGradient3950-3"
       xlink:href="#linearGradient3944-8"
       gradientUnits="userSpaceOnUse" />
    <linearGradient
       id="linearGradient3944-8">
      <stop
         id="stop3946-8"
         style="stop-color:#ffffff;stop-opacity:1"
         offset="0" />
      <stop
         id="stop3948-2"
         style="stop-color:#ffffff;stop-opacity:0"
         offset="1" />
    </linearGradient>
    <linearGradient
       x1="37.585342"
       y1="-10.094367"
       x2="37.585342"
       y2="23.611982"
       id="linearGradient4013"
       xlink:href="#linearGradient3944-8"
       gradientUnits="userSpaceOnUse"
       gradientTransform="matrix(0.97788434,0,0,1.0223907,-0.43547947,-0.34290012)" />
  </defs>
  <metadata
     id="metadata7">
    <rdf:RDF>
      <cc:Work
         rdf:about="">
        <dc:format>image/svg+xml</dc:format>
        <dc:type
           rdf:resource="http://purl.org/dc/dcmitype/StillImage" />
        <dc:title></dc:title>
      </cc:Work>
    </rdf:RDF>
  </metadata>
  <g
     id="g3952"
     style="display:inline">
    <path
       d="m 33.761774,50.251262 c -2.278637,-8.156929 -2.004136,-8.317 -2.272843,-11.743023 11.446315,-0.01891 26.220469,2.53945 33.587572,2.272843 0.0291,-4.486938 0,-9.736991 0,-9.736991 0,0 0.0291,-5.250052 0,-9.73699 -7.367103,-0.266607 -22.141257,2.291753 -33.587572,2.272843 0.268707,-3.426023 -0.0058,-3.586094 2.272843,-11.743022 -15.777841,9.141932 -32.0723436,19.207169 -32.0723436,19.207169 0,0 16.2945026,10.065238 32.0723436,19.207171 z"
       transform="matrix(0.97788434,0,0,1.0223907,0.73842932,-6.4772442)"
       id="path3954"
       style="opacity:0.17695474;color:#000000;fill:#000000;fill-opacity:1;stroke:none;stroke-width:1px;marker:none;visibility:visible;display:inline;overflow:visible;filter:url(#filter3994);enable-background:accumulate" />
  </g>
  <g
     id="layer2"
     style="display:inline">
    <path
       d="m 33.891,40.655222 c -2.228244,-8.339568 -1.959814,-8.503223 -2.222578,-12.005957 11.193172,-0.01933 25.640586,2.59631 32.844761,2.323733 0.02846,-4.587403 0,-9.955009 0,-9.955009 0,0 0.02846,-5.367604 0,-9.955008 C 57.309008,10.790405 42.861594,13.406048 31.668422,13.386715 31.931186,9.8839808 31.66275,9.7203258 33.891,1.3807575 18.462096,10.727385 2.5279577,21.017989 2.5279577,21.017989 c 0,0 15.9341383,10.290606 31.3630423,19.637233 z"
       id="path3854-3"
       style="color:#000000;fill:url(#linearGradient3928);fill-opacity:1;stroke:#f8eb9b;stroke-width:0.99988991px;stroke-linecap:butt;stroke-linejoin:miter;stroke-miterlimit:4;stroke-opacity:1;stroke-dasharray:none;stroke-dashoffset:0;marker:none;visibility:visible;display:inline;overflow:visible;enable-background:accumulate" />
    <path
       d="m 29.648654,34.155706 c -1.205939,-3.869995 -1.060662,-6.808327 -1.202872,-8.433778 6.057809,-0.009 29.522983,2.022429 33.421924,1.895939 0.0154,-2.128795 0,-6.664425 0,-6.664425 0,0 0.0154,-4.53563 0,-6.664425 -3.898941,-0.12649 -27.364115,1.802784 -33.421924,1.793812 0.14221,-1.625451 -0.003,-4.461656 1.202872,-8.3316512 C 21.298441,12.088502 6.8074869,20.953442 6.8074869,20.953442 c 0,0 14.4909541,8.864941 22.8411671,13.202264 z"
       id="path3932"
       style="color:#000000;fill:url(#linearGradient4013);fill-opacity:1;stroke:none;stroke-width:0.50114644px;marker:none;visibility:visible;display:inline;overflow:visible;enable-background:accumulate" />
  </g>
</svg>
