<?xml version="1.0" encoding="UTF-8" standalone="no"?>
<!-- Created with Inkscape (http://www.inkscape.org/) -->
<svg id="svg2" xmlns:rdf="http://www.w3.org/1999/02/22-rdf-syntax-ns#" xmlns="http://www.w3.org/2000/svg" height="65" width="141" version="1.1" xmlns:cc="http://creativecommons.org/ns#" xmlns:xlink="http://www.w3.org/1999/xlink" xmlns:dc="http://purl.org/dc/elements/1.1/">
 <defs id="defs4">
  <linearGradient id="linearGradient3928" y2="2.5805" gradientUnits="userSpaceOnUse" x2="42.561" gradientTransform="matrix(0 .80399 -.86889 0 99.067 -9.1669)" y1="38.728" x1="42.561">
   <stop id="stop3924" stop-color="#f89c0d" offset="0"/>
   <stop id="stop3926" stop-color="#f7d254" offset="1"/>
  </linearGradient>
  <filter id="filter3994" color-interpolation-filters="sRGB">
   <feGaussianBlur id="feGaussianBlur3996" stdDeviation="1.2726793"/>
  </filter>
  <linearGradient id="linearGradient4013" y2="23.612" gradientUnits="userSpaceOnUse" x2="37.585" gradientTransform="matrix(0 .80399 -.86889 0 99.067 -9.1669)" y1="-10.094" x1="37.585">
   <stop id="stop3946-8" stop-color="#fff" offset="0"/>
   <stop id="stop3948-2" stop-color="#fff" stop-opacity="0" offset="1"/>
  </linearGradient>
  <linearGradient id="linearGradient4013-6" y2="23.612" gradientUnits="userSpaceOnUse" x2="37.585" gradientTransform="matrix(0 -.80399 -.86889 0 139.07 48.802)" y1="-10.094" x1="37.585">
   <stop id="stop3946-8-4" stop-color="#fff" offset="0"/>
   <stop id="stop3948-2-9" stop-color="#fff" stop-opacity="0" offset="1"/>
  </linearGradient>
  <linearGradient id="linearGradient3928-3" y2="2.5805" gradientUnits="userSpaceOnUse" x2="42.561" gradientTransform="matrix(0 -.80399 -.86889 0 139.07 48.802)" y1="38.728" x1="42.561">
   <stop id="stop3924-7" stop-color="#f89c0d" offset="0"/>
   <stop id="stop3926-0" stop-color="#f7d254" offset="1"/>
  </linearGradient>
  <filter id="filter3994-5" color-interpolation-filters="sRGB">
   <feGaussianBlur id="feGaussianBlur3996-6" stdDeviation="1.2726793"/>
  </filter>
  <linearGradient id="linearGradient4013-3" y2="23.612" gradientUnits="userSpaceOnUse" x2="37.585" gradientTransform="matrix(.80399 0 0 .86889 1.5213 3.2567)" y1="-10.094" x1="37.585">
   <stop id="stop3946-8-5" stop-color="#fff" offset="0"/>
   <stop id="stop3948-2-8" stop-color="#fff" stop-opacity="0" offset="1"/>
  </linearGradient>
  <linearGradient id="linearGradient3928-5" y2="2.5805" gradientUnits="userSpaceOnUse" x2="42.561" gradientTransform="matrix(.80399 0 0 .86889 1.5213 3.2567)" y1="38.728" x1="42.561">
   <stop id="stop3924-0" stop-color="#f89c0d" offset="0"/>
   <stop id="stop3926-1" stop-color="#f7d254" offset="1"/>
  </linearGradient>
  <filter id="filter3994-6" color-interpolation-filters="sRGB">
   <feGaussianBlur id="feGaussianBlur3996-9" stdDeviation="1.2726793"/>
  </filter>
 </defs>
 <metadata id="metadata7">
  <rdf:RDF>
   <cc:Work rdf:about="">
    <dc:format>image/svg+xml</dc:format>
    <dc:type rdf:resource="http://purl.org/dc/dcmitype/StillImage"/>
    <dc:title/>
   </cc:Work>
  </rdf:RDF>
 </metadata>
 <g id="g3952" transform="translate(0,10)">
  <path id="path3954" opacity=".17695" style="color:#000000" d="m33.762 50.251c-2.2786-8.1569-2.0041-8.317-2.2728-11.743 11.446-0.01891 26.22 2.5394 33.588 2.2728 0.0291-4.4869 0-9.737 0-9.737s0.0291-5.2501 0-9.737c-7.3671-0.26661-22.141 2.2918-33.588 2.2728 0.26871-3.426-0.0058-3.5861 2.2728-11.743-15.778 9.1419-32.072 19.207-32.072 19.207s16.295 10.065 32.072 19.207z" transform="matrix(0 .80399 -.86889 0 107.48 -4.2017)" filter="url(#filter3994)"/>
  <path id="path3954-8" opacity=".17695" style="color:#000000" d="m33.762 50.251c-2.2786-8.1569-2.0041-8.317-2.2728-11.743 11.446-0.01891 26.22 2.5394 33.588 2.2728 0.0291-4.4869 0-9.737 0-9.737s0.0291-5.2501 0-9.737c-7.3671-0.26661-22.141 2.2918-33.588 2.2728 0.26871-3.426-0.0058-3.5861 2.2728-11.743-15.778 9.1419-32.072 19.207-32.072 19.207s16.295 10.065 32.072 19.207z" transform="matrix(0 -.80399 -.86889 0 147.98 52.237)" filter="url(#filter3994-5)"/>
  <path id="path3854-3-5" style="color:#000000" d="m104.22 20.58c7.0875 1.832 7.2266 1.6113 10.203 1.8273 0.0164-9.2027-2.2065-21.081-1.9749-27.004 3.8987-0.0234 8.4604 0 8.4604 0s4.5617-0.0234 8.4604 0c0.23166 5.9231-1.9913 17.801-1.9749 27.004 2.9769-0.21604 3.1159 0.0047 10.203-1.8273-7.9434 12.685-16.689 25.786-16.689 25.786s-8.7456-13.101-16.689-25.786z" stroke="#f8eb9b" stroke-width=".83581px" fill="url(#linearGradient3928-3)"/>
  <path id="path3932-3" style="color:#000000" d="m109.75 24.068c3.289 0.99149 5.7862 0.87205 7.1676 0.98897 0.008-4.9806-1.7188-24.273-1.6113-27.479 1.8092-0.01266 5.6639 0 5.6639 0s3.8547-0.01266 5.6639 0c0.1075 3.2056-1.5321 22.498-1.5245 27.479 1.3814-0.11692 3.7918 0.0025 7.0808-0.98897-3.6861 6.8653-11.22 18.779-11.22 18.779s-7.534-11.914-11.22-18.779z" fill="url(#linearGradient4013-6)"/>
  <path id="path3954-3" opacity=".17695" style="color:#000000" d="m33.762 50.251c-2.2786-8.1569-2.0041-8.317-2.2728-11.743 11.446-0.01891 26.22 2.5394 33.588 2.2728 0.0291-4.4869 0-9.737 0-9.737s0.0291-5.2501 0-9.737c-7.3671-0.26661-22.141 2.2918-33.588 2.2728 0.26871-3.426-0.0058-3.5861 2.2728-11.743-15.778 9.1419-32.072 19.207-32.072 19.207s16.295 10.065 32.072 19.207z" transform="matrix(.80399 0 0 .86889 2.4864 -1.1565)" filter="url(#filter3994-6)"/>
  <path id="path3854-3-3" style="color:#000000" d="m29.744 38.1c-1.832-7.0875-1.6113-7.2266-1.8273-10.203 9.2027-0.01643 21.081 2.2065 27.004 1.9749 0.0234-3.8987 0-8.4604 0-8.4604s0.0234-4.5617 0-8.4604c-5.924-0.234-17.802 1.989-27.005 1.973 0.216-2.977-0.004-3.116 1.828-10.204-12.686 7.944-25.786 16.69-25.786 16.69s13.101 8.7456 25.786 16.689z" stroke="#f8eb9b" stroke-width=".83581px" fill="url(#linearGradient3928-5)"/>
  <path id="path3932-5" style="color:#000000" d="m26.256 32.576c-0.99149-3.289-0.87205-5.7862-0.98897-7.1676 4.9806-0.0076 24.273 1.7188 27.479 1.6113 0.01266-1.8092 0-5.6639 0-5.6639s0.01266-3.8547 0-5.6639c-3.2056-0.1075-22.498 1.5321-27.479 1.5245 0.11692-1.3814-0.0025-3.7918 0.98897-7.0808-6.8653 3.6861-18.779 11.22-18.779 11.22s11.914 7.534 18.779 11.22z" fill="url(#linearGradient4013-3)"/>
 </g>
 <g id="layer2" transform="translate(0,10)">
  <path id="path3854-3" style="color:#000000" d="m64.224 19.055c7.0875-1.832 7.2266-1.6113 10.203-1.8273 0.01643 9.2027-2.2065 21.081-1.9749 27.004 3.8987 0.0234 8.4604 0 8.4604 0s4.5617 0.0234 8.4604 0c0.23165-5.9231-1.9913-17.801-1.9749-27.004 2.9769 0.21604 3.1159-0.0047 10.203 1.8273-7.942-12.685-16.687-25.785-16.687-25.785s-8.7456 13.101-16.689 25.786z" stroke="#f8eb9b" stroke-width=".83581px" fill="url(#linearGradient3928)"/>
  <path id="path3932" style="color:#000000" d="m69.747 15.567c3.289-0.99149 5.7862-0.87205 7.1676-0.98897 0.0076 4.9806-1.7188 24.273-1.6113 27.479 1.8092 0.01266 5.6639 0 5.6639 0s3.8547 0.01266 5.6639 0c0.1075-3.2056-1.5321-22.498-1.5245-27.479 1.3814 0.11692 3.7918-0.0025 7.0808 0.98897-3.686-6.8649-11.22-18.779-11.22-18.779s-7.534 11.914-11.22 18.779z" fill="url(#linearGradient4013)"/>
 </g>
</svg>
