<?xml version="1.0" encoding="UTF-8" standalone="no"?>
<!-- Created with Inkscape (http://www.inkscape.org/) -->

<svg
   xmlns:dc="http://purl.org/dc/elements/1.1/"
   xmlns:cc="http://creativecommons.org/ns#"
   xmlns:rdf="http://www.w3.org/1999/02/22-rdf-syntax-ns#"
   xmlns:svg="http://www.w3.org/2000/svg"
   xmlns="http://www.w3.org/2000/svg"
   xmlns:xlink="http://www.w3.org/1999/xlink"
   version="1.1"
   width="100"
   height="100"
   id="svg2">
  <defs
     id="defs4">
    <linearGradient
       id="linearGradient3842">
      <stop
         id="stop3844"
         style="stop-color:#f8d251;stop-opacity:1"
         offset="0" />
      <stop
         id="stop3846"
         style="stop-color:#f89c0d;stop-opacity:1"
         offset="1" />
    </linearGradient>
    <filter
       color-interpolation-filters="sRGB"
       id="filter3910">
      <feGaussianBlur
         result="result91"
         stdDeviation="5"
         id="feGaussianBlur3912" />
      <feComposite
         in2="result91"
         operator="over"
         in="SourceGraphic"
         id="feComposite3914" />
    </filter>
    <linearGradient
       x1="155.05841"
       y1="439.19958"
       x2="155.05841"
       y2="498.1011"
       id="linearGradient3848-4"
       xlink:href="#linearGradient3842-0"
       gradientUnits="userSpaceOnUse" />
    <linearGradient
       id="linearGradient3842-0">
      <stop
         id="stop3844-2"
         style="stop-color:#f8d251;stop-opacity:1"
         offset="0" />
      <stop
         id="stop3846-8"
         style="stop-color:#f89c0d;stop-opacity:1"
         offset="1" />
    </linearGradient>
    <filter
       color-interpolation-filters="sRGB"
       id="filter4048">
      <feGaussianBlur
         id="feGaussianBlur4050"
         stdDeviation="0.39115654" />
    </filter>
    <filter
       color-interpolation-filters="sRGB"
       id="filter4184">
      <feFlood
         result="flood"
         flood-color="rgb(0,0,0)"
         flood-opacity="0.338"
         id="feFlood4186" />
      <feComposite
         in2="SourceGraphic"
         operator="in"
         in="flood"
         result="composite1"
         id="feComposite4188" />
      <feGaussianBlur
         result="blur"
         stdDeviation="5"
         id="feGaussianBlur4190" />
      <feOffset
         result="offset"
         dy="5"
         dx="0"
         id="feOffset4192" />
      <feComposite
         in2="offset"
         operator="over"
         in="SourceGraphic"
         result="composite2"
         id="feComposite4194" />
    </filter>
    <linearGradient
       x1="155.05841"
       y1="439.19958"
       x2="155.05841"
       y2="498.1011"
       id="linearGradient4201"
       xlink:href="#linearGradient3842"
       gradientUnits="userSpaceOnUse"
       gradientTransform="translate(-112,524)" />
    <linearGradient
       x1="210.37157"
       y1="437.20831"
       x2="210.37157"
       y2="498.17786"
       id="linearGradient4231"
       xlink:href="#linearGradient3842"
       gradientUnits="userSpaceOnUse"
       gradientTransform="translate(-112,528)" />
    <linearGradient
       x1="210.37157"
       y1="437.20831"
       x2="210.37157"
       y2="498.17786"
       id="linearGradient4231-1"
       xlink:href="#linearGradient3842-3"
       gradientUnits="userSpaceOnUse" />
    <linearGradient
       id="linearGradient3842-3">
      <stop
         id="stop3844-9"
         style="stop-color:#f8d251;stop-opacity:1"
         offset="0" />
      <stop
         id="stop3846-6"
         style="stop-color:#f89c0d;stop-opacity:1"
         offset="1" />
    </linearGradient>
    <filter
       color-interpolation-filters="sRGB"
       id="filter4289">
      <feGaussianBlur
         id="feGaussianBlur4291"
         stdDeviation="0.34186782" />
    </filter>
    <filter
       color-interpolation-filters="sRGB"
       id="filter4293">
      <feFlood
         result="flood"
         flood-color="rgb(0,0,0)"
         flood-opacity="0.338"
         id="feFlood4295" />
      <feComposite
         in2="SourceGraphic"
         operator="in"
         in="flood"
         result="composite1"
         id="feComposite4297" />
      <feGaussianBlur
         result="blur"
         stdDeviation="5"
         id="feGaussianBlur4299" />
      <feOffset
         result="offset"
         dy="5"
         dx="0"
         id="feOffset4301" />
      <feComposite
         in2="offset"
         operator="over"
         in="SourceGraphic"
         result="composite2"
         id="feComposite4303" />
    </filter>
    <linearGradient
       x1="261.004"
       y1="435.27872"
       x2="261.004"
       y2="499.92227"
       id="linearGradient4423"
       xlink:href="#linearGradient3842"
       gradientUnits="userSpaceOnUse"
       gradientTransform="translate(-112,528)" />
    <linearGradient
       x1="261.004"
       y1="435.27872"
       x2="261.004"
       y2="499.92227"
       id="linearGradient4423-2"
       xlink:href="#linearGradient3842-6"
       gradientUnits="userSpaceOnUse" />
    <linearGradient
       id="linearGradient3842-6">
      <stop
         id="stop3844-4"
         style="stop-color:#f8d251;stop-opacity:1"
         offset="0" />
      <stop
         id="stop3846-86"
         style="stop-color:#f89c0d;stop-opacity:1"
         offset="1" />
    </linearGradient>
    <filter
       color-interpolation-filters="sRGB"
       id="filter4487">
      <feGaussianBlur
         id="feGaussianBlur4489"
         stdDeviation="0.4212454" />
    </filter>
    <filter
       color-interpolation-filters="sRGB"
       id="filter4491">
      <feFlood
         result="flood"
         flood-color="rgb(0,0,0)"
         flood-opacity="0.338"
         id="feFlood4493" />
      <feComposite
         in2="SourceGraphic"
         operator="in"
         in="flood"
         result="composite1"
         id="feComposite4495" />
      <feGaussianBlur
         result="blur"
         stdDeviation="5"
         id="feGaussianBlur4497" />
      <feOffset
         result="offset"
         dy="5"
         dx="0"
         id="feOffset4499" />
      <feComposite
         in2="offset"
         operator="over"
         in="SourceGraphic"
         result="composite2"
         id="feComposite4501" />
    </filter>
    <linearGradient
       x1="325.59341"
       y1="434.47128"
       x2="325.59341"
       y2="499.76236"
       id="linearGradient4509-6"
       xlink:href="#linearGradient3842-9"
       gradientUnits="userSpaceOnUse" />
    <linearGradient
       id="linearGradient3842-9">
      <stop
         id="stop3844-43"
         style="stop-color:#f8d251;stop-opacity:1"
         offset="0" />
      <stop
         id="stop3846-9"
         style="stop-color:#f89c0d;stop-opacity:1"
         offset="1" />
    </linearGradient>
    <linearGradient
       x1="155.05841"
       y1="439.19958"
       x2="155.05841"
       y2="498.1011"
       id="linearGradient4201-5"
       xlink:href="#linearGradient3842-00"
       gradientUnits="userSpaceOnUse" />
    <linearGradient
       id="linearGradient3842-00">
      <stop
         id="stop3844-7"
         style="stop-color:#f8d251;stop-opacity:1"
         offset="0" />
      <stop
         id="stop3846-1"
         style="stop-color:#f89c0d;stop-opacity:1"
         offset="1" />
    </linearGradient>
    <filter
       x="-0.26419353"
       y="-0.21986578"
       width="1.528387"
       height="1.4397316"
       color-interpolation-filters="sRGB"
       id="filter5497">
      <feGaussianBlur
         id="feGaussianBlur5499"
         stdDeviation="5.5879505" />
    </filter>
    <linearGradient
       x1="210.37157"
       y1="437.20831"
       x2="210.37157"
       y2="498.17786"
       id="linearGradient4231-0"
       xlink:href="#linearGradient3842-03"
       gradientUnits="userSpaceOnUse" />
    <linearGradient
       id="linearGradient3842-03">
      <stop
         id="stop3844-91"
         style="stop-color:#f8d251;stop-opacity:1"
         offset="0" />
      <stop
         id="stop3846-4"
         style="stop-color:#f89c0d;stop-opacity:1"
         offset="1" />
    </linearGradient>
    <filter
       x="-0.32834852"
       y="-0.18911496"
       width="1.6566972"
       height="1.3782299"
       color-interpolation-filters="sRGB"
       id="filter5543">
      <feGaussianBlur
         id="feGaussianBlur5545"
         stdDeviation="4.883826" />
    </filter>
    <linearGradient
       x1="261.004"
       y1="435.27872"
       x2="261.004"
       y2="499.92227"
       id="linearGradient4423-9"
       xlink:href="#linearGradient3842-4"
       gradientUnits="userSpaceOnUse" />
    <linearGradient
       id="linearGradient3842-4">
      <stop
         id="stop3844-47"
         style="stop-color:#f8d251;stop-opacity:1"
         offset="0" />
      <stop
         id="stop3846-5"
         style="stop-color:#f89c0d;stop-opacity:1"
         offset="1" />
    </linearGradient>
    <filter
       x="-0.24985844"
       y="-0.23088998"
       width="1.4997169"
       height="1.46178"
       color-interpolation-filters="sRGB"
       id="filter5581">
      <feGaussianBlur
         id="feGaussianBlur5583"
         stdDeviation="6.0177915" />
    </filter>
    <filter
       x="-0.23430656"
       y="-0.24597701"
       width="1.4686131"
       height="1.491954"
       color-interpolation-filters="sRGB"
       id="filter5603">
      <feGaussianBlur
         id="feGaussianBlur5605"
         stdDeviation="6.570447" />
    </filter>
    <linearGradient
       x1="384.90332"
       y1="431.86258"
       x2="384.90332"
       y2="498.2959"
       id="linearGradient5613"
       xlink:href="#linearGradient3842"
       gradientUnits="userSpaceOnUse"
       gradientTransform="translate(-112,528)" />
    <linearGradient
       x1="384.90332"
       y1="431.86258"
       x2="384.90332"
       y2="498.2959"
       id="linearGradient5613-4"
       xlink:href="#linearGradient3842-7"
       gradientUnits="userSpaceOnUse" />
    <linearGradient
       id="linearGradient3842-7">
      <stop
         id="stop3844-3"
         style="stop-color:#f8d251;stop-opacity:1"
         offset="0" />
      <stop
         id="stop3846-7"
         style="stop-color:#f89c0d;stop-opacity:1"
         offset="1" />
    </linearGradient>
    <filter
       color-interpolation-filters="sRGB"
       id="filter5690">
      <feGaussianBlur
         id="feGaussianBlur5692"
         stdDeviation="0.42067235" />
    </filter>
    <linearGradient
       x1="384.90332"
       y1="431.86258"
       x2="384.90332"
       y2="498.2959"
       id="linearGradient5613-9"
       xlink:href="#linearGradient3842-95"
       gradientUnits="userSpaceOnUse" />
    <linearGradient
       id="linearGradient3842-95">
      <stop
         id="stop3844-0"
         style="stop-color:#f8d251;stop-opacity:1"
         offset="0" />
      <stop
         id="stop3846-59"
         style="stop-color:#f89c0d;stop-opacity:1"
         offset="1" />
    </linearGradient>
    <filter
       x="-0.2653012"
       y="-0.21910448"
       width="1.5306025"
       height="1.4382091"
       color-interpolation-filters="sRGB"
       id="filter5728">
      <feGaussianBlur
         id="feGaussianBlur5730"
         stdDeviation="6.009605" />
    </filter>
    <linearGradient
       x1="447.18903"
       y1="434.71265"
       x2="447.18903"
       y2="497.91129"
       id="linearGradient5738"
       xlink:href="#linearGradient3842"
       gradientUnits="userSpaceOnUse"
       gradientTransform="translate(-112,528)" />
    <linearGradient
       x1="447.18903"
       y1="434.71265"
       x2="447.18903"
       y2="497.91129"
       id="linearGradient5738-7"
       xlink:href="#linearGradient3842-36"
       gradientUnits="userSpaceOnUse" />
    <linearGradient
       id="linearGradient3842-36">
      <stop
         id="stop3844-46"
         style="stop-color:#f8d251;stop-opacity:1"
         offset="0" />
      <stop
         id="stop3846-0"
         style="stop-color:#f89c0d;stop-opacity:1"
         offset="1" />
    </linearGradient>
    <filter
       color-interpolation-filters="sRGB"
       id="filter5796">
      <feGaussianBlur
         id="feGaussianBlur5798"
         stdDeviation="0.42611706" />
    </filter>
    <linearGradient
       x1="447.18903"
       y1="434.71265"
       x2="447.18903"
       y2="497.91129"
       id="linearGradient5738-4"
       xlink:href="#linearGradient3842-5"
       gradientUnits="userSpaceOnUse" />
    <linearGradient
       id="linearGradient3842-5">
      <stop
         id="stop3844-20"
         style="stop-color:#f8d251;stop-opacity:1"
         offset="0" />
      <stop
         id="stop3846-46"
         style="stop-color:#f89c0d;stop-opacity:1"
         offset="1" />
    </linearGradient>
    <filter
       x="-0.24887031"
       y="-0.23174024"
       width="1.4977406"
       height="1.4634805"
       color-interpolation-filters="sRGB"
       id="filter5834">
      <feGaussianBlur
         id="feGaussianBlur5836"
         stdDeviation="6.0873865" />
    </filter>
    <linearGradient
       x1="155.05841"
       y1="439.19958"
       x2="155.05841"
       y2="498.1011"
       id="linearGradient4201-4"
       xlink:href="#linearGradient3842-1"
       gradientUnits="userSpaceOnUse" />
    <linearGradient
       id="linearGradient3842-1">
      <stop
         id="stop3844-5"
         style="stop-color:#ffffff;stop-opacity:1"
         offset="0" />
      <stop
         id="stop3846-97"
         style="stop-color:#ffffff;stop-opacity:0"
         offset="1" />
    </linearGradient>
    <linearGradient
       x1="155.05841"
       y1="439.19958"
       x2="155.05841"
       y2="498.1011"
       id="linearGradient4201-46"
       xlink:href="#linearGradient3842-45"
       gradientUnits="userSpaceOnUse" />
    <linearGradient
       id="linearGradient3842-45">
      <stop
         id="stop3844-8"
         style="stop-color:#f8d251;stop-opacity:1"
         offset="0" />
      <stop
         id="stop3846-51"
         style="stop-color:#f89c0d;stop-opacity:1"
         offset="1" />
    </linearGradient>
    <linearGradient
       x1="155.05841"
       y1="439.19958"
       x2="155.05841"
       y2="498.1011"
       id="linearGradient4201-2"
       xlink:href="#linearGradient3842-8"
       gradientUnits="userSpaceOnUse" />
    <linearGradient
       id="linearGradient3842-8">
      <stop
         id="stop3844-51"
         style="stop-color:#f8d251;stop-opacity:1"
         offset="0" />
      <stop
         id="stop3846-53"
         style="stop-color:#f89c0d;stop-opacity:1"
         offset="1" />
    </linearGradient>
    <linearGradient
       x1="155.97621"
       y1="437.07358"
       x2="158.47852"
       y2="476.14124"
       id="linearGradient5988"
       xlink:href="#linearGradient3842-1"
       gradientUnits="userSpaceOnUse"
       gradientTransform="translate(-112,524)" />
    <linearGradient
       x1="155.97621"
       y1="437.07358"
       x2="158.47852"
       y2="476.14124"
       id="linearGradient5988-7"
       xlink:href="#linearGradient3842-1-4"
       gradientUnits="userSpaceOnUse" />
    <linearGradient
       id="linearGradient3842-1-4">
      <stop
         id="stop3844-5-8"
         style="stop-color:#ffffff;stop-opacity:1"
         offset="0" />
      <stop
         id="stop3846-97-5"
         style="stop-color:#ffffff;stop-opacity:0"
         offset="1" />
    </linearGradient>
    <linearGradient
       x1="210.37157"
       y1="437.20831"
       x2="210.37157"
       y2="498.17786"
       id="linearGradient4231-04"
       xlink:href="#linearGradient3842-360"
       gradientUnits="userSpaceOnUse" />
    <linearGradient
       id="linearGradient3842-360">
      <stop
         id="stop3844-31"
         style="stop-color:#f8d251;stop-opacity:1"
         offset="0" />
      <stop
         id="stop3846-15"
         style="stop-color:#f89c0d;stop-opacity:1"
         offset="1" />
    </linearGradient>
    <linearGradient
       x1="210.37157"
       y1="437.20831"
       x2="210.37157"
       y2="470.88202"
       id="linearGradient6047"
       xlink:href="#linearGradient3842-1"
       gradientUnits="userSpaceOnUse"
       gradientTransform="translate(-112,528)" />
    <linearGradient
       x1="261.004"
       y1="435.27872"
       x2="261.004"
       y2="499.92227"
       id="linearGradient4423-23"
       xlink:href="#linearGradient3842-77"
       gradientUnits="userSpaceOnUse" />
    <linearGradient
       id="linearGradient3842-77">
      <stop
         id="stop3844-6"
         style="stop-color:#f8d251;stop-opacity:1"
         offset="0" />
      <stop
         id="stop3846-01"
         style="stop-color:#f89c0d;stop-opacity:1"
         offset="1" />
    </linearGradient>
    <linearGradient
       x1="261.004"
       y1="435.27872"
       x2="261.004"
       y2="472.70032"
       id="linearGradient6081"
       xlink:href="#linearGradient3842-1"
       gradientUnits="userSpaceOnUse"
       gradientTransform="translate(-112,528)" />
    <linearGradient
       x1="325.59341"
       y1="434.47128"
       x2="325.59341"
       y2="499.76236"
       id="linearGradient4509-8"
       xlink:href="#linearGradient3842-2"
       gradientUnits="userSpaceOnUse" />
    <linearGradient
       id="linearGradient3842-2">
      <stop
         id="stop3844-57"
         style="stop-color:#f8d251;stop-opacity:1"
         offset="0" />
      <stop
         id="stop3846-85"
         style="stop-color:#f89c0d;stop-opacity:1"
         offset="1" />
    </linearGradient>
    <linearGradient
       x1="325.59341"
       y1="434.47128"
       x2="325.59341"
       y2="469.92429"
       id="linearGradient6115"
       xlink:href="#linearGradient3842-1"
       gradientUnits="userSpaceOnUse"
       gradientTransform="translate(-112,528)" />
    <linearGradient
       x1="325.59341"
       y1="434.47128"
       x2="325.59341"
       y2="499.76236"
       id="linearGradient6134"
       xlink:href="#linearGradient3842"
       gradientUnits="userSpaceOnUse"
       gradientTransform="translate(-112,528)" />
    <linearGradient
       x1="325.59341"
       y1="434.47128"
       x2="325.59341"
       y2="499.76236"
       id="linearGradient6134-8"
       xlink:href="#linearGradient3842-65"
       gradientUnits="userSpaceOnUse" />
    <linearGradient
       id="linearGradient3842-65">
      <stop
         id="stop3844-87"
         style="stop-color:#f8d251;stop-opacity:1"
         offset="0" />
      <stop
         id="stop3846-2"
         style="stop-color:#f89c0d;stop-opacity:1"
         offset="1" />
    </linearGradient>
    <filter
       color-interpolation-filters="sRGB"
       id="filter6192">
      <feGaussianBlur
         id="feGaussianBlur6194"
         stdDeviation="0.45993129" />
    </filter>
    <linearGradient
       x1="384.90332"
       y1="431.86258"
       x2="384.90332"
       y2="498.2959"
       id="linearGradient5613-7"
       xlink:href="#linearGradient3842-43"
       gradientUnits="userSpaceOnUse" />
    <linearGradient
       id="linearGradient3842-43">
      <stop
         id="stop3844-07"
         style="stop-color:#f8d251;stop-opacity:1"
         offset="0" />
      <stop
         id="stop3846-58"
         style="stop-color:#f89c0d;stop-opacity:1"
         offset="1" />
    </linearGradient>
    <linearGradient
       x1="384.90332"
       y1="431.86258"
       x2="384.90332"
       y2="470.3089"
       id="linearGradient6230"
       xlink:href="#linearGradient3842-1-4"
       gradientUnits="userSpaceOnUse"
       gradientTransform="translate(-112,528)" />
    <linearGradient
       x1="447.18903"
       y1="434.71265"
       x2="447.18903"
       y2="497.91129"
       id="linearGradient5738-9"
       xlink:href="#linearGradient3842-12"
       gradientUnits="userSpaceOnUse" />
    <linearGradient
       id="linearGradient3842-12">
      <stop
         id="stop3844-875"
         style="stop-color:#f8d251;stop-opacity:1"
         offset="0" />
      <stop
         id="stop3846-93"
         style="stop-color:#f89c0d;stop-opacity:1"
         offset="1" />
    </linearGradient>
    <linearGradient
       x1="447.18903"
       y1="434.71265"
       x2="447.18903"
       y2="469.68362"
       id="linearGradient6247"
       xlink:href="#linearGradient3842-1-4"
       gradientUnits="userSpaceOnUse"
       gradientTransform="translate(-112,528)" />
    <linearGradient
       x1="447.18903"
       y1="434.71265"
       x2="447.18903"
       y2="469.68362"
       id="linearGradient6356"
       xlink:href="#linearGradient3842-1-4"
       gradientUnits="userSpaceOnUse"
       gradientTransform="translate(-112,524)" />
    <linearGradient
       x1="384.90332"
       y1="431.86258"
       x2="384.90332"
       y2="470.3089"
       id="linearGradient6358"
       xlink:href="#linearGradient3842-1-4"
       gradientUnits="userSpaceOnUse"
       gradientTransform="translate(-112,524)" />
    <linearGradient
       x1="261.004"
       y1="435.27872"
       x2="261.004"
       y2="472.70032"
       id="linearGradient6360"
       xlink:href="#linearGradient3842-1"
       gradientUnits="userSpaceOnUse"
       gradientTransform="translate(-112,524)" />
    <linearGradient
       x1="210.37157"
       y1="437.20831"
       x2="210.37157"
       y2="470.88202"
       id="linearGradient6362"
       xlink:href="#linearGradient3842-1"
       gradientUnits="userSpaceOnUse"
       gradientTransform="translate(-112,524)" />
    <linearGradient
       x1="447.18903"
       y1="434.71265"
       x2="447.18903"
       y2="497.91129"
       id="linearGradient6364"
       xlink:href="#linearGradient3842"
       gradientUnits="userSpaceOnUse"
       gradientTransform="translate(-112,524)" />
    <linearGradient
       x1="384.90332"
       y1="431.86258"
       x2="384.90332"
       y2="498.2959"
       id="linearGradient6366"
       xlink:href="#linearGradient3842"
       gradientUnits="userSpaceOnUse"
       gradientTransform="translate(-112,524)" />
    <linearGradient
       x1="325.59341"
       y1="434.47128"
       x2="325.59341"
       y2="469.92429"
       id="linearGradient6368"
       xlink:href="#linearGradient3842-1"
       gradientUnits="userSpaceOnUse"
       gradientTransform="translate(-112,524)" />
    <linearGradient
       x1="325.59341"
       y1="434.47128"
       x2="325.59341"
       y2="499.76236"
       id="linearGradient6370"
       xlink:href="#linearGradient3842"
       gradientUnits="userSpaceOnUse"
       gradientTransform="translate(-112,524)" />
    <linearGradient
       x1="261.004"
       y1="435.27872"
       x2="261.004"
       y2="499.92227"
       id="linearGradient6372"
       xlink:href="#linearGradient3842"
       gradientUnits="userSpaceOnUse"
       gradientTransform="translate(-112,524)" />
    <linearGradient
       x1="210.37157"
       y1="437.20831"
       x2="210.37157"
       y2="498.17786"
       id="linearGradient6374"
       xlink:href="#linearGradient3842"
       gradientUnits="userSpaceOnUse"
       gradientTransform="translate(-112,524)" />
  </defs>
  <metadata
     id="metadata7">
    <rdf:RDF>
      <cc:Work
         rdf:about="">
        <dc:format>image/svg+xml</dc:format>
        <dc:type
           rdf:resource="http://purl.org/dc/dcmitype/StillImage" />
        <dc:title></dc:title>
      </cc:Work>
    </rdf:RDF>
  </metadata>
  <g
     transform="translate(0,-952.36218)"
     id="layer1">
    <path
       d="m 70.42341,1034.1543 c 3.02937,0 4.33937,-3.0294 4.33937,-5.6494 0,-2.7837 -0.81875,-12.0356 -1.88312,-14.41 -0.73688,-1.6374 -1.88312,-2.6199 -3.68437,-2.6199 -1.96499,0 -3.92998,1.5556 -3.92998,3.6024 0,1.5557 0.81874,4.0938 1.06437,5.8132 -3.02936,1.1462 -6.14061,2.2924 -9.33372,2.9474 -0.49125,-14.328 -1.22813,-28.738 -3.84811,-42.82044 0.90062,0 1.71937,0.24563 2.53811,0.24563 2.04687,0 4.09374,-1.6375 4.09374,-3.76624 0,-3.92998 -3.52062,-4.33936 -6.71373,-4.33936 l -2.61999,0 c -7.77809,0 -16.21121,0.73687 -23.6618,2.94749 -1.63749,0.49125 -2.78374,1.96499 -2.78374,3.68436 0,2.04687 1.55562,4.09374 3.68436,4.09374 0.9825,0 2.2925,-0.57313 3.27499,-0.81875 0.3275,14.24617 2.53812,28.57427 3.52062,42.65677 -2.45624,0 -5.64936,1.0643 -5.64936,3.8481 0,3.6843 3.19312,3.8481 5.89498,3.8481 11.6262,0 22.10619,-0.655 32.17677,-4.3394 0,2.62 0.81875,5.0763 3.52061,5.0763"
       id="path3780-4"
       style="font-size:81.87473297px;font-style:normal;font-variant:normal;font-weight:normal;font-stretch:normal;line-height:125%;letter-spacing:0px;word-spacing:0px;opacity:0.45;fill:#000000;fill-opacity:1;stroke:none;filter:url(#filter5497);font-family:Pleasingly Plump NF;-inkscape-font-specification:Pleasingly Plump NF" />
    <path
       d="m 70.42341,1022.1543 c 3.02937,0 4.33937,-3.0294 4.33937,-5.6494 0,-2.7837 -0.81875,-12.0356 -1.88312,-14.41 -0.73688,-1.6374 -1.88312,-2.6199 -3.68437,-2.6199 -1.96499,0 -3.92998,1.5556 -3.92998,3.6024 0,1.5557 0.81874,4.0938 1.06437,5.8132 -3.02936,1.1462 -6.14061,2.2924 -9.33372,2.9474 -0.49125,-14.328 -1.22813,-28.738 -3.84811,-42.82044 0.90062,0 1.71937,0.24563 2.53811,0.24563 2.04687,0 4.09374,-1.6375 4.09374,-3.76624 0,-3.92998 -3.52062,-4.33936 -6.71373,-4.33936 l -2.61999,0 c -7.77809,0 -16.21121,0.73687 -23.6618,2.94749 -1.63749,0.49125 -2.78374,1.96499 -2.78374,3.68436 0,2.04687 1.55562,4.09374 3.68436,4.09374 0.9825,0 2.2925,-0.57313 3.27499,-0.81875 0.3275,14.24619 2.53812,28.57427 3.52062,42.65677 -2.45624,0 -5.64936,1.0643 -5.64936,3.8481 0,3.6843 3.19312,3.8481 5.89498,3.8481 11.6262,0 22.10619,-0.655 32.17677,-4.3394 0,2.62 0.81875,5.0763 3.52061,5.0763"
       id="path3780"
       style="font-size:81.87473297px;font-style:normal;font-variant:normal;font-weight:normal;font-stretch:normal;line-height:125%;letter-spacing:0px;word-spacing:0px;fill:url(#linearGradient4201);fill-opacity:1;stroke:#ffee9a;stroke-opacity:1;font-family:Pleasingly Plump NF;-inkscape-font-specification:Pleasingly Plump NF" />
    <path
       d="m 70.42341,1022.1543 c 3.02937,0 4.33937,-3.0294 4.33937,-5.6494 0,-2.7837 -0.81875,-12.0356 -1.88312,-14.41 -0.73688,-1.6374 -1.88312,-2.6199 -3.68437,-2.6199 -1.96499,0 -3.92998,1.5556 -3.92998,3.6024 0,1.5557 0.81874,4.0938 1.06437,5.8132 -3.02936,1.1462 -6.14061,2.2924 -9.33372,2.9474 -0.49125,-14.328 -1.22813,-28.738 -3.84811,-42.82044 0.90062,0 1.71937,0.24563 2.53811,0.24563 2.04687,0 4.09374,-1.6375 4.09374,-3.76624 0,-3.92998 -3.52062,-4.33936 -6.71373,-4.33936 l -2.61999,0 c -7.77809,0 -16.21121,0.73687 -23.6618,2.94749 -1.63749,0.49125 -2.78374,1.96499 -2.78374,3.68436 0,2.04687 1.55562,4.09374 3.68436,4.09374 0.9825,0 2.2925,-0.57313 3.27499,-0.81875 0.3275,14.24619 2.53812,28.57427 3.52062,42.65677 -2.45624,0 -5.64936,1.0643 -5.64936,3.8481 0,3.6843 3.19312,3.8481 5.89498,3.8481 11.6262,0 22.10619,-0.655 32.17677,-4.3394 0,2.62 0.81875,5.0763 3.52061,5.0763"
       id="path3780-12"
       style="font-size:81.87473297px;font-style:normal;font-variant:normal;font-weight:normal;font-stretch:normal;line-height:125%;letter-spacing:0px;word-spacing:0px;opacity:0.5;fill:url(#linearGradient5988);fill-opacity:1;stroke:none;font-family:Pleasingly Plump NF;-inkscape-font-specification:Pleasingly Plump NF" />
    <path
       d="m 70.42341,1022.1543 c 3.02937,0 4.33937,-3.0294 4.33937,-5.6494 0,-2.7837 -0.81875,-12.0356 -1.88312,-14.41 -0.73688,-1.6374 -1.88312,-2.6199 -3.68437,-2.6199 -1.96499,0 -3.92998,1.5556 -3.92998,3.6024 0,1.5557 0.81874,4.0938 1.06437,5.8132 -3.02936,1.1462 -6.14061,2.2924 -9.33372,2.9474 -0.49125,-14.328 -1.22813,-28.738 -3.84811,-42.82044 0.90062,0 1.71937,0.24563 2.53811,0.24563 2.04687,0 4.09374,-1.6375 4.09374,-3.76624 0,-3.92998 -3.52062,-4.33936 -6.71373,-4.33936 l -2.61999,0 c -7.77809,0 -16.21121,0.73687 -23.6618,2.94749 -1.63749,0.49125 -2.78374,1.96499 -2.78374,3.68436 0,2.04687 1.55562,4.09374 3.68436,4.09374 0.9825,0 2.2925,-0.57313 3.27499,-0.81875 0.3275,14.24619 2.53812,28.57427 3.52062,42.65677 -2.45624,0 -5.64936,1.0643 -5.64936,3.8481 0,3.6843 3.19312,3.8481 5.89498,3.8481 11.6262,0 22.10619,-0.655 32.17677,-4.3394 0,2.62 0.81875,5.0763 3.52061,5.0763"
       id="path3780-1-7"
       style="font-size:81.87473297px;font-style:normal;font-variant:normal;font-weight:normal;font-stretch:normal;line-height:125%;letter-spacing:0px;word-spacing:0px;fill:none;stroke:#cb7d07;stroke-opacity:1;filter:url(#filter4048);font-family:Pleasingly Plump NF;-inkscape-font-specification:Pleasingly Plump NF" />
    <path
       d="m 70.42341,1022.1543 c 3.02937,0 4.33937,-3.0294 4.33937,-5.6494 0,-2.7837 -0.81875,-12.0356 -1.88312,-14.41 -0.73688,-1.6374 -1.88312,-2.6199 -3.68437,-2.6199 -1.96499,0 -3.92998,1.5556 -3.92998,3.6024 0,1.5557 0.81874,4.0938 1.06437,5.8132 -3.02936,1.1462 -6.14061,2.2924 -9.33372,2.9474 -0.49125,-14.328 -1.22813,-28.738 -3.84811,-42.82044 0.90062,0 1.71937,0.24563 2.53811,0.24563 2.04687,0 4.09374,-1.6375 4.09374,-3.76624 0,-3.92998 -3.52062,-4.33936 -6.71373,-4.33936 l -2.61999,0 c -7.77809,0 -16.21121,0.73687 -23.6618,2.94749 -1.63749,0.49125 -2.78374,1.96499 -2.78374,3.68436 0,2.04687 1.55562,4.09374 3.68436,4.09374 0.9825,0 2.2925,-0.57313 3.27499,-0.81875 0.3275,14.24619 2.53812,28.57427 3.52062,42.65677 -2.45624,0 -5.64936,1.0643 -5.64936,3.8481 0,3.6843 3.19312,3.8481 5.89498,3.8481 11.6262,0 22.10619,-0.655 32.17677,-4.3394 0,2.62 0.81875,5.0763 3.52061,5.0763"
       id="path3780-1"
       style="font-size:81.87473297px;font-style:normal;font-variant:normal;font-weight:normal;font-stretch:normal;line-height:125%;letter-spacing:0px;word-spacing:0px;fill:none;stroke:#ffee9a;stroke-opacity:1;font-family:Pleasingly Plump NF;-inkscape-font-specification:Pleasingly Plump NF" />
  </g>
</svg>
