<?xml version="1.0" encoding="UTF-8" standalone="no"?>
<!-- Created with Inkscape (http://www.inkscape.org/) -->

<svg
   xmlns:dc="http://purl.org/dc/elements/1.1/"
   xmlns:cc="http://creativecommons.org/ns#"
   xmlns:rdf="http://www.w3.org/1999/02/22-rdf-syntax-ns#"
   xmlns:svg="http://www.w3.org/2000/svg"
   xmlns="http://www.w3.org/2000/svg"
   xmlns:sodipodi="http://sodipodi.sourceforge.net/DTD/sodipodi-0.dtd"
   xmlns:inkscape="http://www.inkscape.org/namespaces/inkscape"
   width="1407.09"
   height="352.35999"
   id="svg2"
   version="1.1"
   inkscape:version="0.48.4 r9939"
   sodipodi:docname="title.svg">
  <defs
     id="defs4">
    <filter
       id="filter4445"
       inkscape:label="Drop Shadow"
       color-interpolation-filters="sRGB">
      <feFlood
         id="feFlood4447"
         flood-opacity="0.338"
         flood-color="rgb(0,0,0)"
         result="flood" />
      <feComposite
         id="feComposite4449"
         in2="SourceGraphic"
         in="flood"
         operator="in"
         result="composite1" />
      <feGaussianBlur
         id="feGaussianBlur4451"
         stdDeviation="8.3"
         result="blur" />
      <feOffset
         id="feOffset4453"
         dx="0"
         dy="30"
         result="offset" />
      <feComposite
         id="feComposite4455"
         in2="offset"
         in="SourceGraphic"
         operator="over"
         result="composite2" />
    </filter>
  </defs>
  <sodipodi:namedview
     id="base"
     pagecolor="#ffffff"
     bordercolor="#666666"
     borderopacity="1.0"
     inkscape:pageopacity="0.0"
     inkscape:pageshadow="2"
     inkscape:zoom="0.7"
     inkscape:cx="929.60352"
     inkscape:cy="159.7154"
     inkscape:document-units="px"
     inkscape:current-layer="layer1"
     showgrid="false"
     inkscape:window-width="1280"
     inkscape:window-height="776"
     inkscape:window-x="0"
     inkscape:window-y="24"
     inkscape:window-maximized="1" />
  <metadata
     id="metadata7">
    <rdf:RDF>
      <cc:Work
         rdf:about="">
        <dc:format>image/svg+xml</dc:format>
        <dc:type
           rdf:resource="http://purl.org/dc/dcmitype/StillImage" />
        <dc:title></dc:title>
      </cc:Work>
    </rdf:RDF>
  </metadata>
  <g
     inkscape:label="color"
     inkscape:groupmode="layer"
     id="layer1"
     style="display:inline"
     transform="translate(0,-700.00205)">
    <path
       style="fill:#fe9900;fill-opacity:1"
       d="m 763.47178,996.7869 c -2.88,-5.042 -0.4235,-85.76231 3.7508,-123.24997 5.349,-48.03675 6.9768,-60.50493 8.9434,-68.49999 0.7441,-3.025 1.6444,-7.975 2.0007,-11 1.9198,-16.29867 6.5738,-32.88289 5.1917,-18.5 -1.2268,12.76615 -2.8234,25.14947 -3.6745,28.5 -0.4889,1.925 -1.5967,9.125 -2.4616,16 -1.4677,11.66687 -2.3312,19.43078 -6.0058,53.99999 -4.1652,39.18409 -6.6422,117.28767 -3.8096,120.12027 1.3704,1.3704 8.0222,0.1836 23.2797,-4.1536 9.8734,-2.8067 13.291,-4.1949 28.75,-11.67802 l 9.25,-4.47758 -0.05,-15.15553 c -0.027,-8.33555 -0.6427,-22.58054 -1.3673,-31.65554 -0.7246,-9.075 -1.1256,-16.8375 -0.8911,-17.25 1.8869,-3.31929 7.0644,3.41366 20.124,26.16974 2.0264,3.53085 7.1591,10.185 11.406,14.787 4.2469,4.602 9.6469,10.65561 12,13.45246 5.18,6.15689 18.4842,17.14055 19.7868,16.33555 3.1416,-1.9416 6.4097,-25.09536 8.962,-63.49475 0.5301,-7.975 1.87,-21.53739 2.9775,-30.13864 1.1075,-8.60126 2.704,-23.67626 3.5479,-33.5 0.8438,-9.82375 2.4053,-25.73636 3.4698,-35.36135 1.0646,-9.625 2.0703,-24.64822 2.235,-33.38494 l 0.2993,-15.88494 -2.5,-0.95313 c -3.1942,-1.21779 -24.472,-0.36195 -33.1169,1.33203 l -6.6169,1.29658 -0.5882,27.5472 c -0.406,19.01649 -1.1947,31.88265 -2.5467,41.54719 -2.2526,16.10239 -5.8542,34.08359 -7.411,37 -0.5872,1.1 -1.3454,3.35 -1.6849,5 -0.3396,1.65 -1.2523,3 -2.0284,3 -0.776,0 -4.0618,-3.15 -7.3017,-7 -5.3537,-6.36179 -8.5903,-11.33505 -15.9448,-24.5 -1.3826,-2.475 -4.191,-7.425 -6.2408,-11 -2.0498,-3.575 -7.2275,-13.47684 -11.506,-22.00407 -8.1939,-16.33055 -25.0635,-46.25946 -27.771,-49.26955 -1.2813,-1.42437 -1.3472,-2.01512 -0.3347,-3 1.0023,-0.975 1.9096,-0.48261 4.4263,2.40225 3.933,4.50811 15.7521,25.11518 26.8831,46.87138 12.1746,23.79615 27.1133,49.39757 32.5098,55.7143 l 4.6646,5.45998 2.266,-12.33714 c 5.214,-28.38776 6.5502,-41.52102 7.2053,-70.82176 l 0.6369,-28.48463 3.5,-0.6147 c 1.925,-0.33809 6.1934,-1.42022 9.4853,-2.40474 7.6787,-2.29647 34.2438,-2.79141 36.7956,-0.68555 1.3958,1.15178 1.5507,3.64528 1.1806,19 -0.4839,20.07644 -3.1245,61.4358 -4.5441,71.17423 -0.8869,6.08394 -2.4217,17.36544 -4.7617,35 -1.7137,12.91503 -3.1569,27.78877 -4.7058,48.5 -2.1348,28.54457 -5.3991,46.80385 -8.7446,48.91417 -1.2433,0.7842 -2.1794,0.7412 -3.4553,-0.1588 -0.9625,-0.6789 -3.5253,-2.19312 -5.6952,-3.36482 -4.5058,-2.4331 -13.8584,-11.61868 -27.5729,-27.08065 -7.1166,-8.02347 -11.2047,-13.82565 -16.3885,-23.26008 -3.7986,-6.91348 -7.022,-12.45294 -7.1631,-12.3099 -0.141,0.14305 0.4129,8.36008 1.2309,18.26008 1.9588,23.70556 1.7303,34.90808 -0.8108,39.74675 -1.0863,2.0685 -5.5401,4.4881 -20.2315,10.99112 -11.5766,5.1242 -21.7414,8.1097 -33.1189,9.7273 -11.2664,1.6018 -14.237,1.3721 -15.7148,-1.2152 z m -88.2852,-7.3951 c -32.63655,-7.44462 -47.94033,-11.92502 -49.67436,-14.54279 -2.0311,-3.06623 0.16964,-64.35999 3.06311,-85.31208 0.60764,-4.4 2.25488,-17.45 3.66054,-29 1.40566,-11.55 3.39549,-25.275 4.42185,-30.5 1.02635,-5.225 2.16669,-11.40903 2.53408,-13.74231 l 0.66798,-4.24232 -3.3366,0.62135 c -1.83513,0.34174 -8.5116,1.96386 -14.8366,3.60471 -23.95435,6.21429 -24.23484,6.19377 -25.85865,-1.89178 -1.99004,-9.90915 -1.04227,-22.08122 3.28315,-42.16502 0.86652,-4.02345 1.5755,-7.52209 1.5755,-7.77475 0,-1.20381 6.08301,-2.48152 16.2872,-3.42104 21.8894,-2.01541 27.8282,-1.94233 85.7128,1.05485 12.925,0.66924 27.96446,1.27069 33.42102,1.33656 l 9.92098,0.11976 1.2321,6 c 1.4883,7.24836 0.3759,28.55017 -2.0416,39.09535 -3.8819,16.93233 -9.16337,29.49506 -13.53272,32.18919 -2.4685,1.52207 -2.23571,1.62691 -17.83033,-8.03015 -5.99119,-3.71009 -12.64276,-7.38035 -14.78126,-8.15614 -2.13851,-0.7758 -5.46319,-2.086 -7.38819,-2.91155 l -3.5,-1.501 -0.47376,52.15714 c -0.62643,68.96594 -0.63376,99.43689 -0.0262,109.1571 l 0.5,8.00002 -5.5,0.1556 c -3.025,0.086 -6.4,-0.05 -7.5,-0.3007 z m 7.339,-10.60492 c -1.1507,-7.00572 -1.08581,-38.93714 0.11217,-55.19649 0.52898,-7.1794 1.2108,-27.00346 1.51516,-44.05346 0.30437,-17.05 0.78768,-33.925 1.07402,-37.5 0.28635,-3.575 0.12361,-10.775 -0.36165,-16 -0.48526,-5.225 -0.50435,-9.92213 -0.0424,-10.43807 0.51147,-0.57127 4.65706,0.34209 10.6018,2.33579 9.80747,3.28913 21.97279,9.70857 29.97712,15.81841 2.36616,1.80613 4.47146,3.28387 4.67844,3.28387 2.35576,0 9.60418,-24.06499 11.54276,-38.32235 1.1331,-8.33376 1.4083,-24.79204 0.4727,-28.27707 -0.5417,-2.01778 -1.3676,-2.12596 -21.23636,-2.78152 -11.37003,-0.37515 -26.97276,-1.17975 -34.67276,-1.78801 -15.42368,-1.21838 -77.75159,-1.58514 -81.11744,-0.47733 -1.79416,0.59052 -2.20264,1.72363 -2.67546,7.42161 -0.30691,3.69857 -1.10103,11.71669 -1.76472,17.81804 -1.19227,10.96059 -0.59337,26.40664 1.02388,26.40664 0.43759,0 3.8867,-1.17284 7.66468,-2.60631 3.77798,-1.43347 12.62613,-4.07725 19.66255,-5.87507 12.31525,-3.14657 12.87477,-3.20296 14.96757,-1.50831 1.68063,1.36089 1.91725,2.07018 1.04255,3.12507 -0.62234,0.75054 -1.59682,4.51462 -2.16552,8.36462 -9.74357,65.96329 -12.80184,97.03994 -13.05619,132.67068 -0.16038,22.46701 -0.37108,21.64221 5.84104,22.8655 1.96738,0.38742 11.90206,2.53826 22.07706,4.77976 16.91446,3.7261 21.46585,4.66 24.60066,5.0479 0.7738,0.096 0.84458,-1.4229 0.23834,-5.1139 z m -220.65162,3.9263 c -0.5143,-0.6469 -1.25203,-3.4263 -1.63941,-6.1763 -0.38737,-2.74995 -1.77809,-9.49995 -3.09049,-14.99995 -4.32302,-18.11695 -5.72787,-49.76918 -4.32742,-97.5 0.45247,-15.42132 0.32104,-34.78819 -0.33253,-48.99999 -1.43771,-31.26264 -1.48291,-37.02348 -0.29753,-37.91995 4.68721,-3.54483 40.51507,-16.86722 58.09011,-21.60049 6.30343,-1.69762 14.14684,-2.16784 15.29688,-0.91707 2.40047,2.61074 -7.00757,50.58984 -14.40009,73.4375 -4.19423,12.96288 -7.51016,29.31008 -6.20925,30.61099 0.34211,0.3421 4.13209,-0.49098 8.42218,-1.8513 4.29009,-1.36031 11.91691,-3.52879 16.94849,-4.81883 9.09205,-2.33111 9.14223,-2.36121 8.15804,-4.8932 -1.03542,-2.6638 -0.34769,-66.36275 0.73541,-68.11524 0.31695,-0.51283 1.35971,-0.93241 2.31725,-0.93241 0.95754,0 2.16848,-0.41143 2.69098,-0.91429 1.7484,-1.68269 22.68153,-8.08571 26.43427,-8.08571 2.50159,0 4.32477,0.68563 5.61074,2.11 1.70299,1.88625 1.89282,3.66242 1.79018,16.75 -0.22331,28.47726 -4.20357,58.03427 -16.3805,121.63999 -2.84294,14.85 -5.71422,30.08818 -6.38063,33.86263 -0.81641,4.62406 -1.84152,7.32321 -3.14261,8.27459 -4.01063,2.93265 -14.70799,5.11092 -24.48145,4.98509 l -9.5,-0.12231 -0.32838,-4 c -0.76977,-9.3764 4.75846,-39.91341 11.22409,-62 2.1351,-7.2935 2.19327,-8.02607 0.6587,-8.29523 -2.17504,-0.38149 -17.74238,4.66733 -25.89138,8.39713 l -6.33187,2.8981 0.60996,15.62966 c 0.65877,16.88064 3.9075,33.40181 9.14004,46.48112 1.40662,3.51599 2.41379,7.39438 2.23816,8.61866 -0.43399,3.02532 -12.26522,10.22062 -21.31932,12.96561 -3.85,1.1672 -9.025,2.9844 -11.5,4.0382 -5.43527,2.3142 -13.49579,3.09942 -14.81262,1.443 z m 22.8754,-10.1914 c 5.23549,-0.93634 19.52611,-8.88718 19.03346,-10.5896 -0.22207,-0.76739 -1.49199,-4.99525 -2.82204,-9.39525 -4.22149,-13.96532 -6.2742,-26.75512 -6.2742,-39.09264 0,-22.47355 3.16839,-26.84549 24.50568,-33.81446 8.1982,-2.67761 14.91228,-3.34368 15.99792,-1.58707 0.3419,0.55321 0.17003,2.46571 -0.38193,4.25 -6.22756,20.13143 -14.93911,68.26006 -12.75143,70.44775 1.25621,1.25621 22.95791,-3.30411 26.45337,-5.55882 0.72798,-0.46958 1.76812,-2.83175 2.31141,-5.24927 1.83729,-8.17553 15.66285,-81.34319 16.70297,-88.39549 2.56132,-17.36658 3.27103,-22.88688 4.65364,-36.19747 0.81111,-7.80862 1.77349,-20.45572 2.13862,-28.10468 l 0.66389,-13.9072 -2.58784,-0.64951 c -2.85731,-0.71713 -18.8086,3.43427 -24.86387,6.47096 -3.0014,1.50518 -3.77598,2.53511 -4.3176,5.74093 -0.36301,2.14867 -0.51711,17.94641 -0.34243,35.10607 0.291,28.58654 0.17338,31.30498 -1.40452,32.46001 -0.94717,0.69333 -6.79717,2.48543 -13,3.98244 -6.20283,1.49701 -12.86798,3.32646 -14.81145,4.06545 -2.50267,0.95162 -4.83662,1.0922 -8,0.48185 -2.45653,-0.47396 -4.86554,-0.88135 -5.35334,-0.9053 -2.32503,-0.11417 1.88873,-23.44742 6.99093,-38.71152 1.31779,-3.94238 2.40287,-8.21738 2.41129,-9.49999 0.0123,-1.87253 0.20632,-2.03647 0.98469,-0.83203 0.53316,0.825 0.97627,1.0378 0.98469,0.47289 0.008,-0.56491 1.83718,-9.33991 4.06392,-19.5 3.23636,-14.76679 6.94214,-33.28115 6.95002,-34.72289 7.5e-4,-0.1375 -1.12933,-0.25 -2.51129,-0.25 -5.25352,0 -39.96714,10.90073 -52.72021,16.55514 -5.51377,2.44467 -10.86701,4.44486 -11.89609,4.44486 -1.02907,0 -1.87104,0.1822 -1.87104,0.40488 0,0.22269 0.65529,6.18519 1.45621,13.25 1.64664,14.52495 2.15918,41.95222 1.79106,95.84511 -0.27787,40.67978 0.57707,54.95318 4.1928,70 1.32165,5.5 2.91579,12.5662 3.54253,15.70266 l 1.13954,5.70269 7.68893,-3.8917 c 4.22891,-2.14038 9.29218,-4.17835 11.25171,-4.5288 z m -139.65588,5.1086 c -9.85465,-2.39232 -21.76077,-11.34948 -29.63522,-22.29499 -7.28131,-10.12105 -15.73729,-27.82098 -19.69401,-41.22318 -2.81939,-9.54986 -3.07767,-11.64808 -3.07767,-25.00198 0,-27.02283 5.03257,-44.64855 18.64108,-65.28726 11.97292,-18.15815 23.9873,-28.54585 42.35892,-36.62373 17.65687,-7.76361 25.16753,-9.56993 40,-9.62006 11.07637,-0.0374 12.98754,0.21401 16.78079,2.20776 2.35444,1.2375 4.84244,2.25 5.52889,2.25 2.09544,0 13.23443,12.08007 17.98088,19.5 7.2516,11.33612 13.85694,29.03991 14.08078,37.73962 l 0.12866,5.00036 -4.5,1.32059 c -2.475,0.72632 -12.95678,3.80308 -23.29284,6.83725 -13.00923,3.81888 -24.85783,6.49342 -38.5,8.69046 -25.63524,4.1285 -23.51282,4.16483 -24.27806,-0.41567 -0.90355,-5.40838 -3.7427,-7.85221 -9.79844,-8.43409 -4.19047,-0.40265 -5.80302,-0.0346 -9.6022,2.19192 -5.12702,3.00464 -11.90825,10.99645 -14.56028,17.15958 -4.04668,9.4042 -5.56991,24.65201 -3.46919,34.72715 2.0861,10.00498 5.67536,16.72754 12.03371,22.53871 7.47427,6.83106 13.06321,8.59591 24.81132,7.83478 11.08153,-0.71794 13.65106,-2.58403 14.4082,-10.4638 0.45439,-4.72889 0.31527,-5.07361 -3.0983,-7.67726 -2.8481,-2.17236 -4.19983,-2.58862 -6.65494,-2.04939 -5.48957,1.20572 -6.09779,-0.26001 -5.82858,-14.04623 l 0.2391,-12.24411 3.04525,-1.04496 c 1.67489,-0.57473 5.58523,-1.93324 8.68965,-3.0189 5.74628,-2.00956 25.30688,-4.64128 43.2241,-5.81547 8.84994,-0.57997 10.06681,-0.45571 11.23923,1.14767 0.80358,1.09896 0.99437,2.42476 0.4907,3.40992 -0.45325,0.88652 -1.10164,6.33686 -1.44088,12.11186 -2.9849,50.81284 -3.3971,52.13966 -20.68335,66.57745 -15.179,12.6778 -37.69034,18.3559 -55.5673,14.016 z m 24.55263,-5.70254 c 11.60461,-2.93456 19.94675,-6.90957 27.27648,-12.99719 7.7725,-6.45536 12.37334,-13.13373 14.2121,-20.62964 1.30431,-5.31714 3.55189,-34.5899 3.55189,-46.26025 l 0,-5.00383 -5.75,0.0309 c -3.1625,0.017 -9.125,0.4754 -13.25,1.0187 -4.125,0.54331 -11.775,1.43434 -17,1.98007 -5.225,0.54573 -11.57628,1.67814 -14.11396,2.51648 l -4.61397,1.52423 0.44391,7.21482 c 0.24414,3.96815 0.54482,7.6255 0.66817,8.12745 0.25272,1.0284 2.24538,1.58103 8.23729,2.28446 3.78591,0.44446 4.30537,0.87657 6.38091,5.30793 4.69007,10.01348 0.53878,21.90445 -8.61145,24.6667 -2.13999,0.64602 -8.1659,1.2088 -13.3909,1.25064 -8.56353,0.0686 -10.12437,-0.21931 -15.83391,-2.92037 -7.6101,-3.60017 -16.50444,-12.29269 -19.33532,-18.8966 -3.19423,-7.45153 -5.87426,-22.79385 -5.26625,-30.14762 0.74728,-9.03824 2.96259,-17.43842 6.45005,-24.45777 3.39323,-6.82971 6.56767,-10.56229 13.45607,-15.82197 4.47549,-3.4173 5.30652,-3.67803 11.72282,-3.67803 4.14125,0 8.05162,0.59249 9.7679,1.48002 3.51751,1.81898 7.03864,6.14862 7.03864,8.65484 0,2.10753 1.00417,2.25915 6,0.90596 1.925,-0.52142 10.0414,-2.08126 18.03644,-3.46632 13.86723,-2.40235 45.2575,-10.67442 53.21356,-14.02302 4.51413,-1.89993 4.58799,-2.71769 1.18983,-13.17384 -4.08164,-12.55919 -14.79519,-30.75898 -22.08805,-37.52237 -11.21795,-10.4035 -28.9999,-11.49816 -53.85178,-3.31511 -13.45234,4.4295 -16.85151,6.35497 -28.38171,16.07695 -6.15113,5.18649 -11.06639,10.48083 -15.33547,16.51819 -17.50871,24.76093 -23.49499,43.95377 -22.50361,72.14958 0.44951,12.78446 0.85184,15.28991 3.99755,24.89429 4.13844,12.63537 15.62118,35.20664 21.10298,41.48149 4.86479,5.56859 14.57733,12.25114 21.12026,14.53146 6.73006,2.34554 15.3986,2.24299 25.45953,-0.30121 z m 661.82569,2.85909 c -2.88,-5.04207 -0.4235,-85.76234 3.7508,-123.25 5.349,-48.03674 6.9768,-60.50493 8.9434,-68.49999 0.7441,-3.025 1.6444,-7.975 2.0007,-11 1.9198,-16.29867 6.5738,-32.88289 5.1917,-18.5 -1.2268,12.76615 -2.8234,25.14947 -3.6745,28.5 -0.4889,1.925 -1.5967,9.125 -2.4616,16 -1.4677,11.66688 -2.3312,19.43079 -6.0058,53.99999 -4.1652,39.18409 -6.6422,117.28766 -3.8096,120.12027 1.3704,1.3704 8.0222,0.18357 23.2797,-4.15361 9.8734,-2.80667 13.291,-4.19488 28.75,-11.678 l 9.25,-4.47759 -0.05,-15.15553 c -0.027,-8.33555 -0.6427,-22.58054 -1.3673,-31.65554 -0.7246,-9.075 -1.1256,-16.8375 -0.8911,-17.25 1.8869,-3.31929 7.0644,3.41366 20.124,26.16974 2.0264,3.53085 7.1591,10.185 11.406,14.787 4.2469,4.602 9.6469,10.65561 12,13.45246 5.18,6.15689 18.4842,17.14057 19.7868,16.33553 3.1416,-1.94161 6.4097,-25.09534 8.962,-63.49473 0.5301,-7.975 1.87,-21.53739 2.9775,-30.13864 1.1075,-8.60126 2.704,-23.67626 3.5479,-33.5 0.8438,-9.82375 2.4053,-25.73635 3.4698,-35.36135 1.0646,-9.625 2.0703,-24.64822 2.235,-33.38494 l 0.2993,-15.88494 -2.5,-0.95313 c -3.1942,-1.21779 -24.472,-0.36195 -33.1169,1.33203 l -6.6169,1.29658 -0.5882,27.5472 c -0.406,19.01649 -1.1947,31.88266 -2.5467,41.5472 -2.2526,16.10238 -5.8542,34.08358 -7.411,36.99999 -0.5872,1.1 -1.3454,3.35 -1.6849,5 -0.3396,1.65 -1.2523,3 -2.0284,3 -0.776,0 -4.0618,-3.15 -7.3017,-7 -5.3537,-6.36179 -8.5903,-11.33505 -15.9448,-24.5 -1.3826,-2.475 -4.191,-7.425 -6.2408,-10.99999 -2.0498,-3.575 -7.2275,-13.47684 -11.506,-22.00408 -8.1939,-16.33055 -25.0635,-46.25946 -27.771,-49.26955 -1.2813,-1.42437 -1.3472,-2.01512 -0.3347,-3 1.0023,-0.975 1.9096,-0.48261 4.4263,2.40225 3.933,4.50811 15.7521,25.11518 26.8831,46.87138 12.1746,23.79616 27.1133,49.39757 32.5098,55.7143 l 4.6646,5.45998 2.266,-12.33714 c 5.214,-28.38775 6.5502,-41.52101 7.2053,-70.82176 l 0.6369,-28.48463 3.5,-0.6147 c 1.925,-0.33809 6.1934,-1.42022 9.4853,-2.40474 7.6787,-2.29647 34.2438,-2.79141 36.7956,-0.68555 1.3958,1.15178 1.5507,3.64528 1.1806,19 -0.4839,20.07644 -3.1245,61.4358 -4.5441,71.17423 -0.8869,6.08394 -2.4217,17.36544 -4.7617,35 -1.7137,12.91503 -3.1569,27.78877 -4.7058,48.5 -2.1348,28.54457 -5.3991,46.80382 -8.7446,48.91412 -1.2433,0.78425 -2.1794,0.74123 -3.4553,-0.15876 -0.9625,-0.67893 -3.5253,-2.19308 -5.6952,-3.36479 -4.5058,-2.43312 -13.8584,-11.6187 -27.5729,-27.08067 -7.1166,-8.02347 -11.2047,-13.82565 -16.3885,-23.26008 -3.7986,-6.91348 -7.022,-12.45294 -7.1631,-12.3099 -0.141,0.14305 0.4129,8.36008 1.2309,18.26008 1.9588,23.70556 1.7303,34.90808 -0.8108,39.74673 -1.0863,2.06854 -5.5401,4.48815 -20.2315,10.99112 -11.5766,5.12421 -21.7414,8.10972 -33.1189,9.7273 -11.2664,1.6018 -14.237,1.3721 -15.7148,-1.21515 z m -100.76512,-1.71235 c -0.7176,-1.34093 -0.7443,-4.58683 -0.084,-10.25 4.0828,-35.03249 6.1911,-52.13686 7.0614,-57.28765 0.5575,-3.3 2.3523,-13.65 3.9883,-23 3.8309,-21.89389 10.8289,-71.32403 11.3966,-80.49999 0.085,-1.375 0.4615,-2.98314 0.8363,-3.57364 1.8436,-2.90385 53.22112,-23.76449 66.03162,-26.81057 2.5274,-0.60097 2.75,-0.41456 2.75,2.3031 0,4.00898 -2.4926,14.62573 -6.0962,25.96551 -1.6402,5.16143 -4.5106,15.73643 -6.3787,23.49999 -1.868,7.76358 -4.1045,16.09651 -4.97,18.51761 -1.7064,4.77344 -6.78532,26.66907 -8.58852,37.02601 -0.6155,3.53541 -2.8839,14.00575 -5.0408,23.26741 -2.1569,9.26167 -5.6762,26.35714 -7.8206,37.98994 -4.3014,23.33302 -3.8572,22.41001 -13.1052,27.23227 -12.4784,6.50669 -37.6143,10.04011 -39.9799,5.62001 z m 23.3702,-5.7308 c 10.2481,-2.91034 17.216,-6.10165 19.9653,-9.14421 1.3157,-1.45605 2.9574,-7.96119 5.6424,-22.35808 2.0826,-11.16751 5.4246,-27.3419 7.4265,-35.9431 2.0019,-8.6012 4.2496,-18.9512 4.9948,-23 2.3838,-12.95043 6.4361,-30.18356 8.50492,-36.16848 1.104,-3.19386 3.3849,-11.43884 5.0685,-18.32218 1.6837,-6.88334 4.4575,-16.87018 6.1641,-22.19298 4.5434,-14.17056 6.6678,-22.17781 5.8841,-22.17781 -2.1822,0 -33.38212,11.81587 -46.04092,17.4364 -4.125,1.8315 -8.9573,3.64218 -10.7385,4.02374 -1.7812,0.38155 -3.4805,1.08527 -3.7763,1.56382 -0.2958,0.47855 -1.1705,7.76656 -1.9439,16.19558 -1.8234,19.87399 -4.714,40.7543 -9.5907,69.28045 -3.4116,19.95614 -5.8273,37.7965 -9.9522,73.5 -1.4155,12.25194 -1.765,11.35936 4.1419,10.57577 2.8272,-0.37504 9.2397,-1.84605 14.25,-3.26892 z m -869.141609,2.89886 c -0.32016,-0.83432 1.51379,-13.70943 4.07545,-28.61133 6.897103,-40.12241 9.433113,-58.05437 13.590059,-96.09438 1.62278,-14.85 3.20532,-33.74999 3.51677,-41.99999 0.31143,-8.25 1.00544,-17.7 1.54224,-21 0.53679,-3.3 1.42074,-11.85 1.96433,-19 0.54359,-7.15 1.50325,-16.44404 2.13259,-20.65341 l 1.14426,-7.65341 5.73959,-3.00862 c 7.59789,-3.9827 17.62257,-6.88514 28.04602,-8.12013 4.675,-0.5539 13.85766,-1.69186 20.40592,-2.52881 8.74471,-1.11767 12.25987,-1.22795 13.23899,-0.41536 0.73319,0.6085 1.15143,1.40025 0.92943,1.75946 -1.71651,2.77737 -8.29614,36.1241 -20.05774,101.65628 -1.87911,10.46981 -4.3867,23.29481 -5.57243,28.5 -5.27162,23.14164 -6.12152,27.02785 -7.97446,36.46399 -1.08001,5.5 -1.96502,11.36341 -1.96668,13.02981 l -0.003,3.02981 11.25,-3.68126 c 15.04457,-4.92294 32.78289,-8.87041 34.90642,-7.76804 2.00405,1.04035 1.78392,4.67123 -1.06112,17.50246 -1.08379,4.88797 -2.69301,14.06222 -3.57604,20.38722 -4.49078,32.16693 -4.93962,34.0943 -7.56229,32.4734 -2.71514,-1.67804 -26.39506,-0.071 -66.45697,4.51001 -25.427039,2.90756 -27.569059,3.00023 -28.251309,1.2223 z M 1238.0934,954.63042 c -9.8546,-2.39236 -21.7607,-11.34952 -29.6351,-22.29503 -7.2813,-10.12105 -15.7373,-27.82098 -19.694,-41.22318 -2.8194,-9.54986 -3.0777,-11.64808 -3.0777,-25.00198 0,-27.02283 5.0326,-44.64855 18.6411,-65.28725 11.9729,-18.15816 23.9872,-28.54586 42.3588,-36.62374 17.6569,-7.76361 25.1675,-9.56993 40,-9.62006 11.0764,-0.0374 12.9875,0.21401 16.7808,2.20776 2.3544,1.2375 4.8424,2.25 5.5289,2.25 2.0954,0 13.2344,12.08007 17.9809,19.5 7.2516,11.33612 13.8569,29.03992 14.0807,37.73963 l 0.1287,5.00035 -4.5,1.32059 c -2.475,0.72632 -12.9568,3.80308 -23.2928,6.83725 -13.0093,3.81888 -24.8579,6.49342 -38.5,8.69046 -25.6353,4.1285 -23.5129,4.16483 -24.2781,-0.41567 -0.9035,-5.40838 -3.7427,-7.85221 -9.7984,-8.43409 -4.1905,-0.40265 -5.8031,-0.0346 -9.6022,2.19192 -5.1271,3.00464 -11.9082,10.99645 -14.5602,17.15958 -4.0467,9.4042 -5.5699,24.65201 -3.4692,34.72715 2.0861,10.00498 5.6754,16.72754 12.0336,22.53871 7.4743,6.83106 13.0632,8.59591 24.8113,7.83478 11.0816,-0.71794 13.6511,-2.58403 14.4082,-10.4638 0.4544,-4.72889 0.3153,-5.07361 -3.0983,-7.67726 -2.8481,-2.17236 -4.1998,-2.58862 -6.6549,-2.04939 -5.4896,1.20572 -6.0978,-0.26001 -5.8286,-14.04623 l 0.2391,-12.24411 3.0452,-1.04496 c 1.6749,-0.57473 5.5853,-1.93324 8.6897,-3.0189 5.7463,-2.00956 25.3069,-4.64128 43.2241,-5.81547 8.8499,-0.57997 10.0668,-0.45571 11.2392,1.14767 0.8036,1.09896 0.9944,2.42476 0.4907,3.40992 -0.4532,0.88652 -1.1016,6.33686 -1.4409,12.11186 -2.9849,50.81284 -3.3971,52.13966 -20.6833,66.57745 -15.179,12.67777 -37.6903,18.35593 -55.5673,14.01604 z m 24.5526,-5.70258 c 11.6046,-2.93456 19.9468,-6.90957 27.2765,-12.99719 7.7725,-6.45536 12.3733,-13.13373 14.2121,-20.62964 1.3043,-5.31714 3.5519,-34.5899 3.5519,-46.26025 l 0,-5.00383 -5.75,0.0309 c -3.1625,0.017 -9.125,0.4754 -13.25,1.0187 -4.125,0.54331 -11.775,1.43434 -17,1.98007 -5.225,0.54573 -11.5763,1.67814 -14.114,2.51648 l -4.6139,1.52423 0.4439,7.21482 c 0.2441,3.96815 0.5448,7.6255 0.6681,8.12745 0.2528,1.0284 2.2454,1.58103 8.2373,2.28446 3.7859,0.44446 4.3054,0.87657 6.381,5.30793 4.69,10.01348 0.5387,21.90445 -8.6115,24.6667 -2.14,0.64602 -8.1659,1.2088 -13.3909,1.25064 -8.5635,0.0686 -10.1244,-0.21931 -15.8339,-2.92037 -7.6101,-3.60017 -16.5043,-12.29269 -19.3352,-18.8966 -3.1943,-7.45153 -5.8743,-22.79385 -5.2663,-30.14762 0.7473,-9.03824 2.9626,-17.43842 6.4501,-24.45777 3.3932,-6.82971 6.5676,-10.56229 13.4559,-15.82197 4.4755,-3.4173 5.3066,-3.67803 11.7229,-3.67803 4.1412,0 8.0516,0.59249 9.7679,1.48002 3.5175,1.81898 7.0386,6.14862 7.0386,8.65484 0,2.10753 1.0042,2.25915 6,0.90596 1.925,-0.52142 10.0414,-2.08126 18.0364,-3.46632 13.8673,-2.40235 45.2575,-10.67442 53.2136,-14.02301 4.5141,-1.89993 4.588,-2.71769 1.1898,-13.17384 -4.0816,-12.5592 -14.7952,-30.75899 -22.088,-37.52238 -11.218,-10.4035 -28.9999,-11.49816 -53.8518,-3.31511 -13.4523,4.4295 -16.8515,6.35497 -28.3817,16.07695 -6.1511,5.18649 -11.0663,10.48083 -15.3354,16.51819 -17.5087,24.76093 -23.495,43.95377 -22.5036,72.14958 0.4495,12.78446 0.8518,15.28991 3.9976,24.89429 4.1384,12.63537 15.6211,35.20664 21.1029,41.48149 4.8648,5.56859 14.5773,12.25114 21.1202,14.53146 6.7301,2.34554 15.3986,2.24299 25.4595,-0.30121 z m -1049.93927,3.14674 c -0.71765,-1.34093 -0.74436,-4.58683 -0.0844,-10.25 4.08279,-35.03249 6.19111,-52.13686 7.06137,-57.28765 0.55756,-3.3 2.35231,-13.65 3.98832,-23 3.83089,-21.89389 10.82888,-71.32403 11.39666,-80.49999 0.0851,-1.375 0.46141,-2.98314 0.83629,-3.57364 1.84351,-2.90385 53.22103,-23.76449 66.03156,-26.81057 2.52742,-0.60097 2.75,-0.41456 2.75,2.3031 0,4.00898 -2.49262,14.62573 -6.09623,25.96551 -1.64022,5.16143 -4.51061,15.73643 -6.37864,23.5 -1.86804,7.76358 -4.10456,16.09651 -4.97005,18.5176 -1.70641,4.77344 -6.78527,26.66907 -8.58849,37.02601 -0.61554,3.53541 -2.88389,14.00575 -5.04077,23.26741 -2.15689,9.26167 -5.67619,26.35714 -7.82066,37.98994 -4.30137,23.33302 -3.85718,22.41001 -13.10516,27.23227 -12.47836,6.50669 -37.6143,10.04008 -39.97985,5.62001 z m 23.37018,-5.7308 c 10.24811,-2.91034 17.21596,-6.10165 19.96528,-9.14421 1.31572,-1.45605 2.95737,-7.96119 5.64234,-22.35808 2.0827,-11.16751 5.42465,-27.3419 7.42656,-35.9431 2.00191,-8.6012 4.24958,-18.9512 4.99483,-23 2.38374,-12.95043 6.43603,-30.18356 8.50485,-36.16847 1.10403,-3.19386 3.38486,-11.43884 5.06852,-18.32218 1.68366,-6.88335 4.45751,-16.87019 6.16412,-22.19299 4.54339,-14.17056 6.66781,-22.17781 5.88404,-22.17781 -2.18219,0 -33.38204,11.81587 -46.04087,17.4364 -4.125,1.8315 -8.95734,3.64218 -10.73853,4.02374 -1.7812,0.38155 -3.48052,1.08527 -3.77628,1.56382 -0.29576,0.47855 -1.17049,7.76656 -1.94386,16.19558 -1.82345,19.874 -4.71398,40.7543 -9.59073,69.28045 -3.41165,19.95614 -5.8273,37.7965 -9.95217,73.5 -1.41549,12.25194 -1.76506,11.35936 4.1419,10.57577 2.82718,-0.37504 9.23968,-1.84605 14.25,-3.26892 z"
       id="path3104-7"
       inkscape:connector-curvature="0"
       sodipodi:nodetypes="csssscsssssccsccsssssccscsscssscsscsscccsscsscsscssssssssscsssscccssssscssssssssccssssscssccccssssscssssssssssssssssssscsssssssssscssssssssssssscsssscssssssssssssssssssscsssssssssssscscsssssssscssssssssssssscsssssssssssssscsssssssscssscsssscsssssssssssssssssssssssssscccsssscsssssccsccsssssccscsscssscsscsscccsscsscsscssssssssscsssscccccsccssscsssssccsscscscsssssssssscsssssscssssssssscssssssccssssssssssccssssscsscssssscssscccsscssscsssscccscssssssssssssssssssscsscccssscssssssssssccsssssssssssssssss" />
    <path
       sodipodi:nodetypes="csssscsssssccsccsssssccscsscssscsscsscccsscsscsscssssssssscsssscccssssscssssssssccssssscssccccssssssssscssssssssssssscsssscssssssssssssssssscsssssssssssssscsssssssscsssscsssssccsccsssssccscsscssscsscsscccsscsscsscssssssssscsssscccccsccssscssssscccsssssscssssssssscssssssccssssssssssccssssscsscssssscssscccsscssscsssssssssscc"
       inkscape:connector-curvature="0"
       id="path3974"
       d="m 763.47178,996.7869 c -2.88,-5.042 -0.4235,-85.76231 3.7508,-123.24997 5.349,-48.03675 6.9768,-60.50493 8.9434,-68.49999 0.7441,-3.025 1.64439,-7.975 2.0007,-11 1.9198,-16.29867 11.88008,-15.86418 10.90599,2.57143 -0.6767,12.80709 17.53374,21.2209 16.68264,24.57143 -0.4889,1.925 -4.0967,11.98214 -4.9616,18.85714 -1.4677,11.66687 -0.54549,-0.21208 -4.22009,34.35713 -4.1652,39.18409 6.57209,17.64481 9.40469,20.47742 1.3704,1.3704 -23.04923,26.61214 -7.79173,22.27496 9.8734,-2.80667 4.854,-16.45733 10.53571,-0.24943 l -20.75,15.52241 -5.40714,-24.0841 c -0.027,-8.33555 4.71444,-14.7234 3.98984,-23.7984 -0.7246,-9.075 31.3744,-15.40893 31.6089,-15.82143 1.8869,-3.31929 21.70726,8.7708 34.76686,31.52688 2.0264,3.53085 18.58763,-25.52928 22.83453,-20.92728 4.2469,4.602 1.7898,43.51275 4.1429,46.3096 5.18,6.15689 -5.4444,-1.07371 -4.1418,-1.87875 3.1416,-1.94161 -4.3046,21.33323 -1.7523,-17.06616 0.5301,-7.975 -2.0585,-9.03739 -0.951,-17.63864 1.1075,-8.60126 4.4897,-20.10483 5.3336,-29.92857 0.8438,-9.82375 4.191,-22.16494 5.2555,-31.78993 1.0646,-9.625 -2.5432,-13.38932 0.4493,-21.59922 l 4.2279,-11.59923 -0.7143,-7.02456 c -0.3459,-3.40093 8.5953,-6.58897 4.7402,1.33203 l -3.7597,7.72516 1.1975,19.69005 c 1.1546,18.98575 7.3767,21.16837 6.0247,30.83291 -2.2526,16.10239 -16.5685,33.01216 -18.1253,35.92857 -0.5872,1.1 -9.91681,12.27857 -10.25631,13.92857 1.44611,1.29286 -2.68088,9.07143 -9.17126,9.07143 -0.776,0 -16.5618,-1.00714 -19.8017,-4.85714 -5.3537,-6.36179 -11.0903,-4.54934 -18.4448,-17.71429 -1.3826,-2.475 -23.47672,4.00357 -25.52652,0.42857 -2.0498,-3.575 2.7725,-40.26255 -1.506,-48.78978 -8.1939,-16.33055 -7.20635,-48.40232 -9.91385,-51.41241 -1.2813,-1.42437 1.50994,-14.51512 2.52244,-15.5 1.0023,-0.975 1.9096,-0.48261 4.4263,2.40225 3.933,4.50811 15.7521,25.11518 26.8831,46.87138 12.1746,23.79615 27.1133,49.39757 32.5098,55.7143 l 4.6646,5.45998 2.266,-12.33714 c 5.214,-28.38776 6.5502,-41.52102 7.2053,-70.82176 l 0.6369,-28.48463 3.5,-0.6147 c 1.925,-0.33809 6.1934,-1.42022 9.4853,-2.40474 7.6787,-2.29647 34.2438,-2.79141 36.7956,-0.68555 1.3958,1.15178 1.5507,3.64528 1.1806,19 -0.4839,20.07644 -3.1245,61.4358 -4.5441,71.17423 -0.8869,6.08394 -2.4217,17.36544 -4.7617,35 -1.7137,12.91503 -3.1569,27.78877 -4.7058,48.5 -2.1348,28.54457 -5.3991,46.80385 -8.7446,48.91417 -1.2433,0.7842 -2.1794,0.7412 -3.4553,-0.1588 -0.9625,-0.6789 -3.5253,-2.19312 -5.6952,-3.36482 -4.5058,-2.4331 -13.8584,-11.61868 -27.5729,-27.08065 -7.1166,-8.02347 -11.2047,-13.82565 -16.3885,-23.26008 -3.7986,-6.91348 -7.022,-12.45294 -7.1631,-12.3099 -0.141,0.14305 0.4129,8.36008 1.2309,18.26008 1.9588,23.70556 1.7303,34.90808 -0.8108,39.74675 -1.0863,2.0685 -5.5401,4.4881 -20.2315,10.99112 -11.5766,5.1242 -21.7414,8.1097 -33.1189,9.7273 -11.2664,1.6018 -14.237,1.3721 -15.7148,-1.2152 z m -88.2852,-7.3951 c -32.63655,-7.44462 -47.94033,-11.92502 -49.67436,-14.54279 -2.0311,-3.06623 0.16964,-64.35999 3.06311,-85.31208 0.60764,-4.4 2.25488,-17.45 3.66054,-29 1.40566,-11.55 3.39549,-25.275 4.42185,-30.5 1.02635,-5.225 2.16669,-11.40903 2.53408,-13.74231 l 0.66798,-4.24232 -3.3366,0.62135 c -1.83513,0.34174 -8.5116,1.96386 -14.8366,3.60471 -23.95435,6.21429 -24.23484,6.19377 -25.85865,-1.89178 -1.99004,-9.90915 -1.04227,-22.08122 3.28315,-42.16502 0.86652,-4.02345 1.5755,-7.52209 1.5755,-7.77475 0,-1.20381 6.08301,-2.48152 16.2872,-3.42104 21.8894,-2.01541 27.8282,-1.94233 85.7128,1.05485 12.925,0.66924 27.96446,1.27069 33.42102,1.33656 l 9.92098,0.11976 1.2321,6 c 1.4883,7.24836 0.3759,28.55017 -2.0416,39.09535 -3.8819,16.93233 -9.16337,29.49506 -13.53272,32.18919 -2.4685,1.52207 -2.23571,1.62691 -17.83033,-8.03015 -5.99119,-3.71009 -12.64276,-7.38035 -14.78126,-8.15614 -2.13851,-0.7758 -5.46319,-2.086 -7.38819,-2.91155 l -3.5,-1.501 -0.47376,52.15714 c -0.62643,68.96594 -0.63376,99.43689 -0.0262,109.1571 l 0.5,8.00002 -5.5,0.1556 c -3.025,0.086 -6.4,-0.05 -7.5,-0.3007 z m -213.31262,-6.67862 c -0.5143,-0.6469 -1.25203,-3.4263 -1.63941,-6.1763 -0.38737,-2.74995 -1.77809,-9.49995 -3.09049,-14.99995 -4.32302,-18.11695 -5.72787,-49.76918 -4.32742,-97.5 0.45247,-15.42132 0.32104,-34.78819 -0.33253,-48.99999 -1.43771,-31.26264 -1.48291,-37.02348 -0.29753,-37.91995 4.68721,-3.54483 40.51507,-16.86722 58.09011,-21.60049 6.30343,-1.69762 14.14684,-2.16784 15.29688,-0.91707 2.40047,2.61074 -7.00757,50.58984 -14.40009,73.4375 -4.19423,12.96288 -7.51016,29.31008 -6.20925,30.61099 0.34211,0.3421 4.13209,-0.49098 8.42218,-1.8513 4.29009,-1.36031 11.91691,-3.52879 16.94849,-4.81883 9.09205,-2.33111 9.14223,-2.36121 8.15804,-4.8932 -1.03542,-2.6638 -0.34769,-66.36275 0.73541,-68.11524 0.31695,-0.51283 1.35971,-0.93241 2.31725,-0.93241 0.95754,0 2.16848,-0.41143 2.69098,-0.91429 1.7484,-1.68269 22.68153,-8.08571 26.43427,-8.08571 2.50159,0 4.32477,0.68563 5.61074,2.11 1.70299,1.88625 1.89282,3.66242 1.79018,16.75 -0.22331,28.47726 -4.20357,58.03427 -16.3805,121.63999 -2.84294,14.85 -5.71422,30.08818 -6.38063,33.86263 -0.81641,4.62406 -1.84152,7.32321 -3.14261,8.27459 -4.01063,2.93265 -14.70799,5.11092 -24.48145,4.98509 l -9.5,-0.12231 -0.32838,-4 c -0.76977,-9.3764 4.75846,-39.91341 11.22409,-62 2.1351,-7.2935 2.19327,-8.02607 0.6587,-8.29523 -2.17504,-0.38149 -17.74238,4.66733 -25.89138,8.39713 l -6.33187,2.8981 0.60996,15.62966 c 0.65877,16.88064 3.9075,33.40181 9.14004,46.48112 1.40662,3.51599 2.41379,7.39438 2.23816,8.61866 -0.43399,3.02532 -12.26522,10.22062 -21.31932,12.96561 -3.85,1.1672 -9.025,2.9844 -11.5,4.0382 -5.43527,2.3142 -13.49579,3.09942 -14.81262,1.443 z m -116.78048,-5.0828 c -9.85465,-2.39232 -21.76077,-11.34948 -29.63522,-22.29499 -7.28131,-10.12105 -15.73729,-27.82098 -19.69401,-41.22318 -2.81939,-9.54986 -3.07767,-11.64808 -3.07767,-25.00198 0,-27.02283 5.03257,-44.64855 18.64108,-65.28726 11.97292,-18.15815 23.9873,-28.54585 42.35892,-36.62373 17.65687,-7.76361 25.16753,-9.56993 40,-9.62006 11.07637,-0.0374 12.98754,0.21401 16.78079,2.20776 2.35444,1.2375 4.84244,2.25 5.52889,2.25 2.09544,0 13.23443,12.08007 17.98088,19.5 7.2516,11.33612 13.85694,29.03991 14.08078,37.73962 l 0.12866,5.00036 -4.5,1.32059 c -2.475,0.72632 -12.95678,3.80308 -23.29284,6.83725 -13.00923,3.81888 -24.85783,6.49342 -38.5,8.69046 -25.63524,4.1285 -23.51282,4.16483 -24.27806,-0.41567 -0.90355,-5.40838 -3.7427,-7.85221 -9.79844,-8.43409 -4.19047,-0.40265 -5.80302,-0.0346 -9.6022,2.19192 -5.12702,3.00464 -11.90825,10.99645 -14.56028,17.15958 -4.04668,9.4042 -5.56991,24.65201 -3.46919,34.72715 2.0861,10.00498 5.67536,16.72754 12.03371,22.53871 7.47427,6.83106 13.06321,8.59591 24.81132,7.83478 11.08153,-0.71794 13.65106,-2.58403 14.4082,-10.4638 0.45439,-4.72889 0.31527,-5.07361 -3.0983,-7.67726 -2.8481,-2.17236 -4.19983,-2.58862 -6.65494,-2.04939 -5.48957,1.20572 -6.09779,-0.26001 -5.82858,-14.04623 l 0.2391,-12.24411 3.04525,-1.04496 c 1.67489,-0.57473 5.58523,-1.93324 8.68965,-3.0189 5.74628,-2.00956 25.30688,-4.64128 43.2241,-5.81547 8.84994,-0.57997 10.06681,-0.45571 11.23923,1.14767 0.80358,1.09896 0.99437,2.42476 0.4907,3.40992 -0.45325,0.88652 -1.10164,6.33686 -1.44088,12.11186 -2.9849,50.81284 -3.3971,52.13966 -20.68335,66.57745 -15.179,12.6778 -37.69034,18.3559 -55.5673,14.016 z m 686.37832,-2.84345 c -2.88,-5.04207 -0.4235,-85.76234 3.7508,-123.25 5.349,-48.03674 6.9768,-60.50493 8.9434,-68.49999 0.7441,-3.025 1.6444,-7.975 2.0007,-11 1.9198,-16.29867 20.2109,3.98768 18.8288,18.37057 -1.2268,12.76615 9.8035,6.96672 8.9524,10.31725 -0.4889,1.925 5.4743,6.59962 4.6094,13.47462 -1.4677,11.66688 10.8008,31.55262 7.1262,66.12182 -4.1652,39.18409 -34.9142,59.46554 -34.6192,55.47051 1.8754,-25.39864 -10.1606,-16.48395 5.0969,-20.82113 9.8734,-2.80667 1.8371,-35.26911 8.0419,-19.25414 l 2.1789,5.62393 6.0109,2.52214 c -0.027,-8.33555 1.3776,-4.39779 0.653,-13.47279 -0.7246,-9.075 -13.7525,-16.8375 -13.518,-17.25 1.8869,-3.31929 60.0975,-19.31477 73.1571,3.44131 2.0264,3.53085 4.6337,-0.92668 8.8806,3.67532 4.2469,4.602 7.6266,6.10992 9.9797,8.90677 5.18,6.15689 -4.7493,8.55427 -3.4467,7.74923 3.1416,-1.94161 -11.7731,36.52397 -9.2208,-1.87542 0.5301,-7.975 -9.7467,7.25196 -8.6392,-1.34929 1.1075,-8.60126 13.8156,-47.41485 14.6595,-57.23859 0.8438,-9.82375 7.4561,-22.20081 8.5206,-31.82581 1.0646,-9.625 4.2503,-2.6632 0.7198,-10.65651 l -1.216,-2.75296 5.5813,-11.55973 c 1.4863,-3.07844 -19.5364,33.11433 -15.9443,25.07062 l 16.1115,-36.07907 1.9372,10.87968 c 3.3343,18.7263 -6.2455,33.39789 -7.5975,43.06243 -2.2526,16.10238 -5.3491,30.04297 -6.9059,32.95938 -0.5872,1.1 -0.8403,10.42107 -1.1798,12.07107 -0.3396,1.65 -6.9551,16.1969 -16.6757,18.15229 -7.6852,1.54596 -29.3156,-6.18046 -32.5555,-10.03046 -5.3537,-6.36179 -2.5294,8.868 -9.8839,-4.29695 -1.3826,-2.475 -12.2722,-25.10267 -14.322,-28.67766 -2.0498,-3.575 -0.6615,-23.57836 -4.94,-32.1056 -8.1939,-16.33055 -14.962,-38.17825 -17.6695,-41.18834 0.7391,-10.51574 3.7036,-22.72324 4.7161,-23.70812 1.0023,-0.975 1.9096,-0.48261 4.4263,2.40225 3.933,4.50811 15.7521,25.11518 26.8831,46.87138 12.1746,23.79616 27.1133,49.39757 32.5098,55.7143 l 4.6646,5.45998 2.266,-12.33714 c 5.214,-28.38775 6.5502,-41.52101 7.2053,-70.82176 l 0.6369,-28.48463 3.5,-0.6147 c 1.925,-0.33809 6.1934,-1.42022 9.4853,-2.40474 7.6787,-2.29647 34.2438,-2.79141 36.7956,-0.68555 1.3958,1.15178 1.5507,3.64528 1.1806,19 -0.4839,20.07644 -3.1245,61.4358 -4.5441,71.17423 -0.8869,6.08394 -2.4217,17.36544 -4.7617,35 -1.7137,12.91503 -3.1569,27.78877 -4.7058,48.5 -2.1348,28.54457 -5.3991,46.80382 -8.7446,48.91412 -1.2433,0.78425 -2.1794,0.74123 -3.4553,-0.15876 -0.9625,-0.67893 -3.5253,-2.19308 -5.6952,-3.36479 -4.5058,-2.43312 -13.8584,-11.6187 -27.5729,-27.08067 -7.1166,-8.02347 -11.2047,-13.82565 -16.3885,-23.26008 -3.7986,-6.91348 -7.022,-12.45294 -7.1631,-12.3099 -0.141,0.14305 0.4129,8.36008 1.2309,18.26008 1.9588,23.70556 1.7303,34.90808 -0.8108,39.74673 -1.0863,2.06854 -5.5401,4.48815 -20.2315,10.99112 -11.5766,5.12421 -21.7414,8.10972 -33.1189,9.7273 -11.2664,1.6018 -14.237,1.3721 -15.7148,-1.21515 z m -100.76512,-1.71235 c -0.7176,-1.34093 -0.7443,-4.58683 -0.084,-10.25 4.0828,-35.03249 6.1911,-52.13686 7.0614,-57.28765 0.5575,-3.3 2.3523,-13.65 3.9883,-23 3.8309,-21.89389 10.8289,-71.32403 11.3966,-80.49999 0.085,-1.375 0.4615,-2.98314 0.8363,-3.57364 1.8436,-2.90385 53.22112,-23.76449 66.03162,-26.81057 2.5274,-0.60097 2.75,-0.41456 2.75,2.3031 0,4.00898 -2.4926,14.62573 -6.0962,25.96551 -1.6402,5.16143 -4.5106,15.73643 -6.3787,23.49999 -1.868,7.76358 -4.1045,16.09651 -4.97,18.51761 -1.7064,4.77344 -6.78532,26.66907 -8.58852,37.02601 -0.6155,3.53541 -2.8839,14.00575 -5.0408,23.26741 -2.1569,9.26167 -5.6762,26.35714 -7.8206,37.98994 -4.3014,23.33302 -3.8572,22.41001 -13.1052,27.23227 -12.4784,6.50669 -37.6143,10.04011 -39.9799,5.62001 z M 84.935271,970.24264 c -0.32016,-0.83432 1.51379,-13.70943 4.07545,-28.61133 6.897103,-40.12241 9.433113,-58.05437 13.590059,-96.09438 1.62278,-14.85 3.20532,-33.74999 3.51677,-41.99999 0.31143,-8.25 1.00544,-17.7 1.54224,-21 0.53679,-3.3 1.42074,-11.85 1.96433,-19 0.54359,-7.15 1.50325,-16.44404 2.13259,-20.65341 l 1.14426,-7.65341 5.73959,-3.00862 c 7.59789,-3.9827 17.62257,-6.88514 28.04602,-8.12013 4.675,-0.5539 13.85766,-1.69186 20.40592,-2.52881 8.74471,-1.11767 12.25987,-1.22795 13.23899,-0.41536 0.73319,0.6085 1.15143,1.40025 0.92943,1.75946 -1.71651,2.77737 -8.29614,36.1241 -20.05774,101.65628 -1.87911,10.46981 -4.3867,23.29481 -5.57243,28.5 -5.27162,23.14164 -6.12152,27.02785 -7.97446,36.46399 -1.08001,5.5 -1.96502,11.36341 -1.96668,13.02981 l -0.003,3.02981 11.25,-3.68126 c 15.04457,-4.92294 32.78289,-8.87041 34.90642,-7.76804 2.00405,1.04035 1.78392,4.67123 -1.06112,17.50246 -1.08379,4.88797 -2.69301,14.06222 -3.57604,20.38722 -4.49078,32.16693 -4.93962,34.0943 -7.56229,32.4734 -2.71514,-1.67804 -26.39506,-0.071 -66.45697,4.51001 -25.427039,2.90756 -27.569059,3.00023 -28.251309,1.2223 z M 1238.0934,954.63042 c -9.8546,-2.39236 -21.7607,-11.34952 -29.6351,-22.29503 -7.2813,-10.12105 -15.7373,-27.82098 -19.694,-41.22318 -2.8194,-9.54986 -3.0777,-11.64808 -3.0777,-25.00198 0,-27.02283 5.0326,-44.64855 18.6411,-65.28725 11.9729,-18.15816 23.9872,-28.54586 42.3588,-36.62374 17.6569,-7.76361 25.1675,-9.56993 40,-9.62006 11.0764,-0.0374 12.9875,0.21401 16.7808,2.20776 2.3544,1.2375 4.8424,2.25 5.5289,2.25 2.0954,0 13.2344,12.08007 17.9809,19.5 7.2516,11.33612 13.8569,29.03992 14.0807,37.73963 l 0.1287,5.00035 -4.5,1.32059 c -2.475,0.72632 -12.9568,3.80308 -23.2928,6.83725 -13.0093,3.81888 -24.8579,6.49342 -38.5,8.69046 -25.6353,4.1285 -23.5129,4.16483 -24.2781,-0.41567 -0.9035,-5.40838 -3.7427,-7.85221 -9.7984,-8.43409 -4.1905,-0.40265 -5.8031,-0.0346 -9.6022,2.19192 -5.1271,3.00464 -11.9082,10.99645 -14.5602,17.15958 -4.0467,9.4042 -5.5699,24.65201 -3.4692,34.72715 2.0861,10.00498 5.6754,16.72754 12.0336,22.53871 7.4743,6.83106 13.0632,8.59591 24.8113,7.83478 11.0816,-0.71794 13.6511,-2.58403 14.4082,-10.4638 0.4544,-4.72889 0.3153,-5.07361 -3.0983,-7.67726 -2.8481,-2.17236 -4.1998,-2.58862 -6.6549,-2.04939 -5.4896,1.20572 -6.0978,-0.26001 -5.8286,-14.04623 l 0.2391,-12.24411 3.0452,-1.04496 c 1.6749,-0.57473 5.5853,-1.93324 8.6897,-3.0189 5.7463,-2.00956 25.3069,-4.64128 43.2241,-5.81547 8.8499,-0.57997 10.0668,-0.45571 11.2392,1.14767 0.8036,1.09896 0.9944,2.42476 0.4907,3.40992 -0.4532,0.88652 -1.1016,6.33686 -1.4409,12.11186 -2.9849,50.81284 -3.3971,52.13966 -20.6833,66.57745 -15.179,12.67777 -37.6903,18.35593 -55.5673,14.01604 z M 212.70673,952.07458 c -0.71765,-1.34093 -0.74436,-4.58683 -0.0844,-10.25 4.08279,-35.03249 6.19111,-52.13686 7.06137,-57.28765 0.55756,-3.3 2.35231,-13.65 3.98832,-23 3.83089,-21.89389 10.82888,-71.32403 11.39666,-80.49999 0.0851,-1.375 0.46141,-2.98314 0.83629,-3.57364 1.84351,-2.90385 53.22103,-23.76449 66.03156,-26.81057 2.52742,-0.60097 2.75,-0.41456 2.75,2.3031 0,4.00898 -2.49262,14.62573 -6.09623,25.96551 -1.64022,5.16143 -4.51061,15.73643 -6.37864,23.5 -1.86804,7.76358 -4.10456,16.09651 -4.97005,18.5176 -1.70641,4.77344 -6.78527,26.66907 -8.58849,37.02601 -0.61554,3.53541 -2.88389,14.00575 -5.04077,23.26741 -2.15689,9.26167 -5.67619,26.35714 -7.82066,37.98994 -4.30137,23.33302 -3.85718,22.41001 -13.10516,27.23227 -12.47836,6.50669 -37.6143,10.04008 -39.97985,5.62001 z"
       style="fill:#fe9900;fill-opacity:1;filter:url(#filter4445)" />
    <path
       style="fill:#812600;fill-opacity:1;display:inline"
       d="m 763.47178,996.7869 c -2.88,-5.042 -0.4235,-85.76233 3.7508,-123.24999 5.349,-48.03675 6.9768,-60.50491 8.9434,-68.49997 0.7441,-3.025 1.6444,-7.975 2.0007,-11 1.9198,-16.29867 6.5738,-32.88289 5.1917,-18.5 -1.2268,12.76615 -2.8234,25.14947 -3.6745,28.5 -0.4889,1.925 -1.5967,9.125 -2.4616,16 -1.4677,11.66685 -2.3312,19.43076 -6.0058,53.99997 -4.1652,39.18409 -6.6422,117.28769 -3.8096,120.12029 1.3704,1.3704 8.0222,0.1836 23.2797,-4.1536 9.8734,-2.8067 13.291,-4.1949 28.75,-11.67802 l 9.25,-4.4776 -0.05,-15.15553 c -0.027,-8.33555 -0.6427,-22.58054 -1.3673,-31.65554 -0.7246,-9.075 -1.1256,-16.8375 -0.8911,-17.25 1.8869,-3.31929 7.0644,3.41366 20.124,26.16974 2.0264,3.53085 7.1591,10.185 11.406,14.787 4.2469,4.602 9.6469,10.65561 12,13.45246 5.18,6.15689 18.4842,17.14057 19.7868,16.33557 3.1416,-1.9417 6.4097,-25.09538 8.962,-63.49477 0.5301,-7.975 1.87,-21.53739 2.9775,-30.13864 1.1075,-8.60126 2.704,-23.67626 3.5479,-33.5 0.8438,-9.82375 2.4053,-25.73636 3.4698,-35.36133 1.0646,-9.625 2.0703,-24.64822 2.235,-33.38494 l 0.2993,-15.88494 -2.5,-0.95313 c -3.1942,-1.21779 -24.472,-0.36195 -33.1169,1.33203 l -6.6169,1.29658 -0.5882,27.5472 c -0.406,19.01649 -1.1947,31.88263 -2.5467,41.54717 -2.2526,16.10239 -5.8542,34.08359 -7.411,37 -0.5872,1.1 -1.3454,3.35 -1.6849,5 -0.3396,1.65 -1.2523,3 -2.0284,3 -0.776,0 -4.0618,-3.15 -7.3017,-7 -5.3537,-6.36179 -8.5903,-11.33505 -15.9448,-24.5 -1.3826,-2.475 -4.191,-7.425 -6.2408,-11 -2.0498,-3.575 -7.2275,-13.47684 -11.506,-22.00405 -8.1939,-16.33055 -25.0635,-46.25946 -27.771,-49.26955 -1.2813,-1.42437 -1.3472,-2.01512 -0.3347,-3 1.0023,-0.975 1.9096,-0.48261 4.4263,2.40225 3.933,4.50811 15.7521,25.11518 26.8831,46.87138 12.1746,23.79613 27.1133,49.39755 32.5098,55.71428 l 4.6646,5.45998 2.266,-12.33714 c 5.214,-28.38776 6.5502,-41.52102 7.2053,-70.82174 l 0.6369,-28.48463 3.5,-0.6147 c 1.925,-0.33809 6.1934,-1.42022 9.4853,-2.40474 7.6787,-2.29647 34.2438,-2.79141 36.7956,-0.68555 1.3958,1.15178 1.5507,3.64528 1.1806,19 -0.4839,20.07644 -3.1245,61.43578 -4.5441,71.17421 -0.8869,6.08394 -2.4217,17.36544 -4.7617,35 -1.7137,12.91503 -3.1569,27.78877 -4.7058,48.5 -2.1348,28.54457 -5.3991,46.80377 -8.7446,48.91409 -1.2433,0.7843 -2.1794,0.7413 -3.4553,-0.1587 -0.9625,-0.6789 -3.5253,-2.19312 -5.6952,-3.36482 -4.5058,-2.4331 -13.8584,-11.6187 -27.5729,-27.08067 -7.1166,-8.02347 -11.2047,-13.82565 -16.3885,-23.26008 -3.7986,-6.91348 -7.022,-12.45294 -7.1631,-12.3099 -0.141,0.14305 0.4129,8.36008 1.2309,18.26008 1.9588,23.70556 1.7303,34.90808 -0.8108,39.74677 -1.0863,2.0685 -5.5401,4.4881 -20.2315,10.99112 -11.5766,5.1242 -21.7414,8.1097 -33.1189,9.7273 -11.2664,1.6018 -14.237,1.3721 -15.7148,-1.2152 z m -88.2852,-7.3951 c -32.63655,-7.44462 -47.94033,-11.92502 -49.67436,-14.54281 -2.0311,-3.06623 0.16964,-64.35999 3.06311,-85.31208 0.60764,-4.4 2.25488,-17.45 3.66054,-29 1.40566,-11.55 3.39549,-25.275 4.42185,-30.5 1.02635,-5.225 2.16669,-11.40901 2.53408,-13.74229 l 0.66798,-4.24232 -3.3366,0.62135 c -1.83513,0.34174 -8.5116,1.96386 -14.8366,3.60471 -23.95435,6.21427 -24.23484,6.19375 -25.85865,-1.89178 -1.99004,-9.90915 -1.04227,-22.08122 3.28315,-42.16502 0.86652,-4.02345 1.5755,-7.52209 1.5755,-7.77475 0,-1.20381 6.08301,-2.48152 16.2872,-3.42104 21.8894,-2.01541 27.8282,-1.94233 85.7128,1.05485 12.925,0.66924 27.96446,1.27069 33.42102,1.33656 l 9.92098,0.11976 1.2321,6 c 1.4883,7.24836 0.3759,28.55017 -2.0416,39.09535 -3.8819,16.93231 -9.16337,29.49504 -13.53272,32.18917 -2.4685,1.52207 -2.23571,1.62691 -17.83033,-8.03015 -5.99119,-3.71009 -12.64276,-7.38035 -14.78126,-8.15614 -2.13851,-0.7758 -5.46319,-2.086 -7.38819,-2.91155 l -3.5,-1.50098 -0.47376,52.15712 c -0.62643,68.96594 -0.63376,99.43689 -0.0262,109.15712 l 0.5,8.00002 -5.5,0.1556 c -3.025,0.086 -6.4,-0.05 -7.5,-0.3007 z m 7.339,-10.60492 c -1.1507,-7.00574 -1.08581,-38.93716 0.11217,-55.19651 0.52898,-7.1794 1.2108,-27.00346 1.51516,-44.05346 0.30437,-17.05 0.78768,-33.925 1.07402,-37.5 0.28635,-3.575 0.12361,-10.775 -0.36165,-16 -0.48526,-5.225 -0.50435,-9.92211 -0.0424,-10.43805 0.51147,-0.57127 4.65706,0.34209 10.6018,2.33579 9.80747,3.28911 21.97279,9.70855 29.97712,15.81839 2.36616,1.80613 4.47146,3.28387 4.67844,3.28387 2.35576,0 9.60418,-24.06497 11.54276,-38.32233 1.1331,-8.33376 1.4083,-24.79204 0.4727,-28.27707 -0.5417,-2.01778 -1.3676,-2.12596 -21.23636,-2.78152 -11.37003,-0.37515 -26.97276,-1.17975 -34.67276,-1.78801 -15.42368,-1.21838 -77.75159,-1.58514 -81.11744,-0.47733 -1.79416,0.59052 -2.20264,1.72363 -2.67546,7.42161 -0.30691,3.69857 -1.10103,11.71669 -1.76472,17.81804 -1.19227,10.96059 -0.59337,26.40664 1.02388,26.40664 0.43759,0 3.8867,-1.17284 7.66468,-2.60631 3.77798,-1.43347 12.62613,-4.07725 19.66255,-5.87507 12.31525,-3.14657 12.87477,-3.20296 14.96757,-1.50831 1.68063,1.36089 1.91725,2.07018 1.04255,3.12507 -0.62234,0.75054 -1.59682,4.51462 -2.16552,8.36462 -9.74357,65.96327 -12.80184,97.03992 -13.05619,132.67066 -0.16038,22.46701 -0.37108,21.64221 5.84104,22.8655 1.96738,0.38742 11.90206,2.53828 22.07706,4.77978 16.91446,3.7261 21.46585,4.66 24.60066,5.0478 0.7738,0.096 0.84458,-1.4228 0.23834,-5.1138 z m -220.65162,3.9263 c -0.5143,-0.647 -1.25203,-3.4263 -1.63941,-6.1763 -0.38737,-2.74997 -1.77809,-9.49997 -3.09049,-14.99997 -4.32302,-18.11695 -5.72787,-49.76918 -4.32742,-97.5 0.45247,-15.42132 0.32104,-34.78819 -0.33253,-48.99997 -1.43771,-31.26264 -1.48291,-37.02348 -0.29753,-37.91995 4.68721,-3.54483 40.51507,-16.86722 58.09011,-21.60049 6.30343,-1.69762 14.14684,-2.16784 15.29688,-0.91707 2.40047,2.61074 -7.00757,50.58984 -14.40009,73.43748 -4.19423,12.96288 -7.51016,29.31008 -6.20925,30.61099 0.34211,0.3421 4.13209,-0.49098 8.42218,-1.8513 4.29009,-1.36031 11.91691,-3.52879 16.94849,-4.81883 9.09205,-2.33111 9.14223,-2.36121 8.15804,-4.8932 -1.03542,-2.6638 -0.34769,-66.36273 0.73541,-68.11522 0.31695,-0.51283 1.35971,-0.93241 2.31725,-0.93241 0.95754,0 2.16848,-0.41143 2.69098,-0.91429 1.7484,-1.68269 22.68153,-8.08571 26.43427,-8.08571 2.50159,0 4.32477,0.68563 5.61074,2.11 1.70299,1.88625 1.89282,3.66242 1.79018,16.75 -0.22331,28.47726 -4.20357,58.03425 -16.3805,121.63997 -2.84294,14.85 -5.71422,30.08818 -6.38063,33.86263 -0.81641,4.62406 -1.84152,7.32321 -3.14261,8.27459 -4.01063,2.93265 -14.70799,5.11092 -24.48145,4.98509 l -9.5,-0.12231 -0.32838,-4 c -0.76977,-9.3764 4.75846,-39.91341 11.22409,-62 2.1351,-7.2935 2.19327,-8.02607 0.6587,-8.29523 -2.17504,-0.38149 -17.74238,4.66733 -25.89138,8.39713 l -6.33187,2.8981 0.60996,15.62966 c 0.65877,16.88064 3.9075,33.40181 9.14004,46.48112 1.40662,3.51599 2.41379,7.39438 2.23816,8.61866 -0.43399,3.02532 -12.26522,10.22062 -21.31932,12.96563 -3.85,1.1672 -9.025,2.9844 -11.5,4.0382 -5.43527,2.3142 -13.49579,3.09942 -14.81262,1.443 z m 22.8754,-10.19142 c 5.23549,-0.93634 19.52611,-8.88718 19.03346,-10.5896 -0.22207,-0.76739 -1.49199,-4.99525 -2.82204,-9.39525 -4.22149,-13.96532 -6.2742,-26.75512 -6.2742,-39.09264 0,-22.47355 3.16839,-26.84549 24.50568,-33.81446 8.1982,-2.67761 14.91228,-3.34368 15.99792,-1.58707 0.3419,0.55321 0.17003,2.46571 -0.38193,4.25 -6.22756,20.13143 -14.93911,68.26006 -12.75143,70.44775 1.25621,1.25621 22.95791,-3.30411 26.45337,-5.55882 0.72798,-0.46958 1.76812,-2.83175 2.31141,-5.24927 1.83729,-8.17553 15.66285,-81.34319 16.70297,-88.39549 2.56132,-17.36658 3.27103,-22.88688 4.65364,-36.19745 0.81111,-7.80862 1.77349,-20.45572 2.13862,-28.10468 l 0.66389,-13.9072 -2.58784,-0.64951 c -2.85731,-0.71713 -18.8086,3.43427 -24.86387,6.47096 -3.0014,1.50518 -3.77598,2.53511 -4.3176,5.74093 -0.36301,2.14867 -0.51711,17.94641 -0.34243,35.10605 0.291,28.58654 0.17338,31.30498 -1.40452,32.46001 -0.94717,0.69333 -6.79717,2.48543 -13,3.98244 -6.20283,1.49701 -12.86798,3.32646 -14.81145,4.06545 -2.50267,0.95162 -4.83662,1.0922 -8,0.48185 -2.45653,-0.47396 -4.86554,-0.88135 -5.35334,-0.9053 -2.32503,-0.11417 1.88873,-23.44742 6.99093,-38.71152 1.31779,-3.94236 2.40287,-8.21736 2.41129,-9.49997 0.0123,-1.87253 0.20632,-2.03647 0.98469,-0.83203 0.53316,0.825 0.97627,1.0378 0.98469,0.47289 0.008,-0.56491 1.83718,-9.33991 4.06392,-19.5 3.23636,-14.76679 6.94214,-33.28115 6.95002,-34.72289 7.5e-4,-0.1375 -1.12933,-0.25 -2.51129,-0.25 -5.25352,0 -39.96714,10.90073 -52.72021,16.55514 -5.51377,2.44467 -10.86701,4.44486 -11.89609,4.44486 -1.02907,0 -1.87104,0.1822 -1.87104,0.40488 0,0.22269 0.65529,6.18519 1.45621,13.25 1.64664,14.52495 2.15918,41.9522 1.79106,95.84509 -0.27787,40.67978 0.57707,54.95318 4.1928,70 1.32165,5.5 2.91579,12.5662 3.54253,15.70266 l 1.13954,5.70261 7.68893,-3.8916 c 4.22891,-2.1404 9.29218,-4.17837 11.25171,-4.52882 z m -139.65588,5.10862 c -9.85465,-2.39234 -21.76077,-11.3495 -29.63522,-22.29501 -7.28131,-10.12105 -15.73729,-27.82098 -19.69401,-41.22318 -2.81939,-9.54986 -3.07767,-11.64808 -3.07767,-25.00198 0,-27.02283 5.03257,-44.64855 18.64108,-65.28726 11.97292,-18.15813 23.9873,-28.54583 42.35892,-36.62371 17.65687,-7.76361 25.16753,-9.56993 40,-9.62006 11.07637,-0.0374 12.98754,0.21401 16.78079,2.20776 2.35444,1.2375 4.84244,2.25 5.52889,2.25 2.09544,0 13.23443,12.08007 17.98088,19.5 7.2516,11.33612 13.85694,29.03989 14.08078,37.7396 l 0.12866,5.00036 -4.5,1.32059 c -2.475,0.72632 -12.95678,3.80308 -23.29284,6.83725 -13.00923,3.81888 -24.85783,6.49342 -38.5,8.69046 -25.63524,4.1285 -23.51282,4.16483 -24.27806,-0.41567 -0.90355,-5.40838 -3.7427,-7.85221 -9.79844,-8.43409 -4.19047,-0.40265 -5.80302,-0.0346 -9.6022,2.19192 -5.12702,3.00464 -11.90825,10.99645 -14.56028,17.15958 -4.04668,9.4042 -5.56991,24.65201 -3.46919,34.72715 2.0861,10.00498 5.67536,16.72754 12.03371,22.53871 7.47427,6.83106 13.06321,8.59591 24.81132,7.83478 11.08153,-0.71794 13.65106,-2.58403 14.4082,-10.4638 0.45439,-4.72889 0.31527,-5.07361 -3.0983,-7.67726 -2.8481,-2.17236 -4.19983,-2.58862 -6.65494,-2.04939 -5.48957,1.20572 -6.09779,-0.26001 -5.82858,-14.04623 l 0.2391,-12.24411 3.04525,-1.04496 c 1.67489,-0.57473 5.58523,-1.93324 8.68965,-3.0189 5.74628,-2.00956 25.30688,-4.64128 43.2241,-5.81547 8.84994,-0.57997 10.06681,-0.45571 11.23923,1.14767 0.80358,1.09896 0.99437,2.42476 0.4907,3.40992 -0.45325,0.88652 -1.10164,6.33686 -1.44088,12.11186 -2.9849,50.81284 -3.3971,52.13966 -20.68335,66.57745 -15.179,12.67772 -37.69034,18.35592 -55.5673,14.01602 z m 24.55263,-5.70256 c 11.60461,-2.93456 19.94675,-6.90957 27.27648,-12.99719 7.7725,-6.45536 12.37334,-13.13373 14.2121,-20.62964 1.30431,-5.31714 3.55189,-34.5899 3.55189,-46.26025 l 0,-5.00383 -5.75,0.0309 c -3.1625,0.017 -9.125,0.4754 -13.25,1.0187 -4.125,0.54331 -11.775,1.43434 -17,1.98007 -5.225,0.54573 -11.57628,1.67814 -14.11396,2.51648 l -4.61397,1.52423 0.44391,7.21482 c 0.24414,3.96815 0.54482,7.6255 0.66817,8.12745 0.25272,1.0284 2.24538,1.58103 8.23729,2.28446 3.78591,0.44446 4.30537,0.87657 6.38091,5.30793 4.69007,10.01348 0.53878,21.90445 -8.61145,24.6667 -2.13999,0.64602 -8.1659,1.2088 -13.3909,1.25064 -8.56353,0.0686 -10.12437,-0.21931 -15.83391,-2.92037 -7.6101,-3.60017 -16.50444,-12.29269 -19.33532,-18.8966 -3.19423,-7.45153 -5.87426,-22.79385 -5.26625,-30.14762 0.74728,-9.03824 2.96259,-17.43842 6.45005,-24.45777 3.39323,-6.82971 6.56767,-10.56229 13.45607,-15.82197 4.47549,-3.4173 5.30652,-3.67803 11.72282,-3.67803 4.14125,0 8.05162,0.59249 9.7679,1.48002 3.51751,1.81898 7.03864,6.14862 7.03864,8.65484 0,2.10753 1.00417,2.25915 6,0.90596 1.925,-0.52142 10.0414,-2.08126 18.03644,-3.46632 13.86723,-2.40235 45.2575,-10.67442 53.21356,-14.02302 4.51413,-1.89993 4.58799,-2.71769 1.18983,-13.17384 -4.08164,-12.55917 -14.79519,-30.75896 -22.08805,-37.52235 -11.21795,-10.4035 -28.9999,-11.49816 -53.85178,-3.31511 -13.45234,4.4295 -16.85151,6.35497 -28.38171,16.07695 -6.15113,5.18649 -11.06639,10.48083 -15.33547,16.51819 -17.50871,24.76091 -23.49499,43.95375 -22.50361,72.14956 0.44951,12.78446 0.85184,15.28991 3.99755,24.89429 4.13844,12.63537 15.62118,35.20664 21.10298,41.48149 4.86479,5.56859 14.57733,12.25114 21.12026,14.53146 6.73006,2.34554 15.3986,2.24299 25.45953,-0.30121 z m 661.82569,2.85909 c -2.88,-5.04207 -0.4235,-85.76234 3.7508,-123.25 5.349,-48.03672 6.9768,-60.50491 8.9434,-68.49997 0.7441,-3.025 1.6444,-7.975 2.0007,-11 1.9198,-16.29867 6.5738,-32.88289 5.1917,-18.5 -1.2268,12.76615 -2.8234,25.14947 -3.6745,28.5 -0.4889,1.925 -1.5967,9.125 -2.4616,16 -1.4677,11.66688 -2.3312,19.43079 -6.0058,53.99997 -4.1652,39.18409 -6.6422,117.28766 -3.8096,120.12027 1.3704,1.3704 8.0222,0.18357 23.2797,-4.15361 9.8734,-2.80667 13.291,-4.19488 28.75,-11.678 l 9.25,-4.47759 -0.05,-15.15553 c -0.027,-8.33555 -0.6427,-22.58054 -1.3673,-31.65554 -0.7246,-9.075 -1.1256,-16.8375 -0.8911,-17.25 1.8869,-3.31929 7.0644,3.41366 20.124,26.16974 2.0264,3.53085 7.1591,10.185 11.406,14.787 4.2469,4.602 9.6469,10.65561 12,13.45246 5.18,6.15689 18.4842,17.14057 19.7868,16.33553 3.1416,-1.94161 6.4097,-25.09534 8.962,-63.49473 0.5301,-7.975 1.87,-21.53739 2.9775,-30.13864 1.1075,-8.60126 2.704,-23.67626 3.5479,-33.5 0.8438,-9.82375 2.4053,-25.73633 3.4698,-35.36133 1.0646,-9.625 2.0703,-24.64822 2.235,-33.38494 l 0.2993,-15.88494 -2.5,-0.95313 c -3.1942,-1.21779 -24.472,-0.36195 -33.1169,1.33203 l -6.6169,1.29658 -0.5882,27.5472 c -0.406,19.01649 -1.1947,31.88266 -2.5467,41.5472 -2.2526,16.10236 -5.8542,34.08356 -7.411,36.99997 -0.5872,1.1 -1.3454,3.35 -1.6849,5 -0.3396,1.65 -1.2523,3 -2.0284,3 -0.776,0 -4.0618,-3.15 -7.3017,-7 -5.3537,-6.36179 -8.5903,-11.33505 -15.9448,-24.5 -1.3826,-2.475 -4.191,-7.425 -6.2408,-10.99997 -2.0498,-3.575 -7.2275,-13.47684 -11.506,-22.00408 -8.1939,-16.33055 -25.0635,-46.25946 -27.771,-49.26955 -1.2813,-1.42437 -1.3472,-2.01512 -0.3347,-3 1.0023,-0.975 1.9096,-0.48261 4.4263,2.40225 3.933,4.50811 15.7521,25.11518 26.8831,46.87138 12.1746,23.79616 27.1133,49.39755 32.5098,55.71428 l 4.6646,5.45998 2.266,-12.33714 c 5.214,-28.38773 6.5502,-41.52099 7.2053,-70.82174 l 0.6369,-28.48463 3.5,-0.6147 c 1.925,-0.33809 6.1934,-1.42022 9.4853,-2.40474 7.6787,-2.29647 34.2438,-2.79141 36.7956,-0.68555 1.3958,1.15178 1.5507,3.64528 1.1806,19 -0.4839,20.07644 -3.1245,61.43578 -4.5441,71.17421 -0.8869,6.08394 -2.4217,17.36544 -4.7617,35 -1.7137,12.91503 -3.1569,27.78877 -4.7058,48.5 -2.1348,28.54457 -5.3991,46.80382 -8.7446,48.91412 -1.2433,0.78425 -2.1794,0.74123 -3.4553,-0.15876 -0.9625,-0.67893 -3.5253,-2.19308 -5.6952,-3.36479 -4.5058,-2.43312 -13.8584,-11.6187 -27.5729,-27.08067 -7.1166,-8.02347 -11.2047,-13.82565 -16.3885,-23.26008 -3.7986,-6.91348 -7.022,-12.45294 -7.1631,-12.3099 -0.141,0.14305 0.4129,8.36008 1.2309,18.26008 1.9588,23.70556 1.7303,34.90808 -0.8108,39.74673 -1.0863,2.06854 -5.5401,4.48815 -20.2315,10.99112 -11.5766,5.12421 -21.7414,8.10972 -33.1189,9.72732 -11.2664,1.6018 -14.237,1.3721 -15.7148,-1.21517 z m -100.76512,-1.71235 c -0.7176,-1.34093 -0.7443,-4.58683 -0.084,-10.25 4.0828,-35.03249 6.1911,-52.13686 7.0614,-57.28765 0.5575,-3.3 2.3523,-13.65 3.9883,-23 3.8309,-21.89389 10.8289,-71.32401 11.3966,-80.49997 0.085,-1.375 0.4615,-2.98314 0.8363,-3.57364 1.8436,-2.90385 53.22112,-23.76449 66.03162,-26.81057 2.5274,-0.60097 2.75,-0.41456 2.75,2.3031 0,4.00898 -2.4926,14.62573 -6.0962,25.96551 -1.6402,5.16143 -4.5106,15.73643 -6.3787,23.49997 -1.868,7.76358 -4.1045,16.09651 -4.97,18.51761 -1.7064,4.77344 -6.78532,26.66907 -8.58852,37.02601 -0.6155,3.53541 -2.8839,14.00575 -5.0408,23.26741 -2.1569,9.26167 -5.6762,26.35714 -7.8206,37.98994 -4.3014,23.33302 -3.8572,22.41001 -13.1052,27.23227 -12.4784,6.50669 -37.6143,10.04003 -39.9799,5.62001 z m 23.3702,-5.7308 c 10.2481,-2.91034 17.216,-6.10165 19.9653,-9.14421 1.3157,-1.45605 2.9574,-7.96119 5.6424,-22.35808 2.0826,-11.16751 5.4246,-27.3419 7.4265,-35.9431 2.0019,-8.6012 4.2496,-18.9512 4.9948,-23 2.3838,-12.95043 6.4361,-30.18356 8.50492,-36.16848 1.104,-3.19386 3.3849,-11.43884 5.0685,-18.32218 1.6837,-6.88332 4.4575,-16.87016 6.1641,-22.19296 4.5434,-14.17056 6.6678,-22.17781 5.8841,-22.17781 -2.1822,0 -33.38212,11.81587 -46.04092,17.4364 -4.125,1.8315 -8.9573,3.64218 -10.7385,4.02374 -1.7812,0.38155 -3.4805,1.08527 -3.7763,1.56382 -0.2958,0.47855 -1.1705,7.76656 -1.9439,16.19558 -1.8234,19.87397 -4.714,40.75428 -9.5907,69.28043 -3.4116,19.95614 -5.8273,37.7965 -9.9522,73.5 -1.4155,12.25194 -1.765,11.35936 4.1419,10.57577 2.8272,-0.37504 9.2397,-1.84605 14.25,-3.26892 z m -869.141609,2.89886 c -0.32016,-0.83432 1.51379,-13.70943 4.07545,-28.61133 6.897103,-40.12241 9.433113,-58.05437 13.590059,-96.09438 1.62278,-14.85 3.20532,-33.74997 3.51677,-41.99997 0.31143,-8.25 1.00544,-17.7 1.54224,-21 0.53679,-3.3 1.42074,-11.85 1.96433,-19 0.54359,-7.15 1.50325,-16.44404 2.13259,-20.65341 l 1.14426,-7.65341 5.73959,-3.00862 c 7.59789,-3.9827 17.62257,-6.88514 28.04602,-8.12013 4.675,-0.5539 13.85766,-1.69186 20.40592,-2.52881 8.74471,-1.11767 12.25987,-1.22795 13.23899,-0.41536 0.73319,0.6085 1.15143,1.40025 0.92943,1.75946 -1.71651,2.77737 -8.29614,36.1241 -20.05774,101.65626 -1.87911,10.46981 -4.3867,23.29481 -5.57243,28.5 -5.27162,23.14164 -6.12152,27.02785 -7.97446,36.46399 -1.08001,5.5 -1.96502,11.36341 -1.96668,13.02981 l -0.003,3.02981 11.25,-3.68126 c 15.04457,-4.92294 32.78289,-8.87041 34.90642,-7.76804 2.00405,1.04035 1.78392,4.67123 -1.06112,17.50246 -1.08379,4.88797 -2.69301,14.06222 -3.57604,20.38722 -4.49078,32.16693 -4.93962,34.0943 -7.56229,32.4734 -2.71514,-1.67804 -26.39506,-0.071 -66.45697,4.51001 -25.427039,2.90756 -27.569059,3.00023 -28.251309,1.2223 z m 19.009059,-4.19139 c 18.90602,-2.63591 51.70739,-5.95541 64.08742,-6.48565 5.47383,-0.23445 10.26397,-0.78681 10.64474,-1.22747 0.38077,-0.44066 1.70916,-8.0012 2.95198,-16.8012 1.24282,-8.8 3.36514,-21.78668 4.71627,-28.85929 1.35113,-7.07261 2.18921,-13.12667 1.86241,-13.45347 -0.74931,-0.74931 -25.13659,5.19372 -36.84906,8.97989 -4.85566,1.56964 -9.16919,2.64332 -9.58561,2.38596 -2.18176,-1.3484 1.36815,-22.85327 9.33548,-56.55309 1.36533,-5.775 4.54232,-22.2 7.05999,-36.49997 2.51766,-14.3 4.78141,-26.57873 5.03055,-27.28606 0.24914,-0.70733 1.38306,-6.78233 2.51982,-13.5 2.69198,-15.90824 5.39337,-28.95568 8.42265,-40.6805 1.3452,-5.20661 2.22959,-9.6828 1.9653,-9.94709 -0.43612,-0.43612 -4.97427,0.008 -29.91969,2.927 -4.4,0.5149 -13.22332,2.62634 -19.60737,4.69208 l -11.60737,3.7559 -0.69245,12.01934 c -1.09365,18.98319 -1.55278,24.54735 -2.62687,31.83524 -0.55249,3.74874 -1.43239,14.99874 -1.95534,25 -1.89958,36.32909 -10.173796,99.96703 -19.045976,146.48482 -1.952663,10.238 -2.428203,15.19924 -1.456873,15.19924 0.27926,0 6.916763,-0.89356 14.749999,-1.98568 z M 1238.0934,954.6304 c -9.8546,-2.39236 -21.7607,-11.34952 -29.6351,-22.29503 -7.2813,-10.12105 -15.7373,-27.82098 -19.694,-41.22318 -2.8194,-9.54986 -3.0777,-11.64808 -3.0777,-25.00198 0,-27.02283 5.0326,-44.64855 18.6411,-65.28723 11.9729,-18.15816 23.9872,-28.54586 42.3588,-36.62374 17.6569,-7.76361 25.1675,-9.56993 40,-9.62006 11.0764,-0.0374 12.9875,0.21401 16.7808,2.20776 2.3544,1.2375 4.8424,2.25 5.5289,2.25 2.0954,0 13.2344,12.08007 17.9809,19.5 7.2516,11.33612 13.8569,29.03992 14.0807,37.73963 l 0.1287,5.00033 -4.5,1.32059 c -2.475,0.72632 -12.9568,3.80308 -23.2928,6.83725 -13.0093,3.81888 -24.8579,6.49342 -38.5,8.69046 -25.6353,4.1285 -23.5129,4.16483 -24.2781,-0.41567 -0.9035,-5.40838 -3.7427,-7.85221 -9.7984,-8.43409 -4.1905,-0.40265 -5.8031,-0.0346 -9.6022,2.19192 -5.1271,3.00464 -11.9082,10.99645 -14.5602,17.15958 -4.0467,9.4042 -5.5699,24.65201 -3.4692,34.72715 2.0861,10.00498 5.6754,16.72754 12.0336,22.53871 7.4743,6.83106 13.0632,8.59591 24.8113,7.83478 11.0816,-0.71794 13.6511,-2.58403 14.4082,-10.4638 0.4544,-4.72889 0.3153,-5.07361 -3.0983,-7.67726 -2.8481,-2.17236 -4.1998,-2.58862 -6.6549,-2.04939 -5.4896,1.20572 -6.0978,-0.26001 -5.8286,-14.04623 l 0.2391,-12.24411 3.0452,-1.04496 c 1.6749,-0.57473 5.5853,-1.93324 8.6897,-3.0189 5.7463,-2.00956 25.3069,-4.64128 43.2241,-5.81547 8.8499,-0.57997 10.0668,-0.45571 11.2392,1.14767 0.8036,1.09896 0.9944,2.42476 0.4907,3.40992 -0.4532,0.88652 -1.1016,6.33686 -1.4409,12.11186 -2.9849,50.81284 -3.3971,52.13966 -20.6833,66.57745 -15.179,12.67777 -37.6903,18.35593 -55.5673,14.01604 z m 24.5526,-5.70258 c 11.6046,-2.93456 19.9468,-6.90957 27.2765,-12.99719 7.7725,-6.45536 12.3733,-13.13373 14.2121,-20.62964 1.3043,-5.31714 3.5519,-34.5899 3.5519,-46.26025 l 0,-5.00383 -5.75,0.0309 c -3.1625,0.017 -9.125,0.4754 -13.25,1.0187 -4.125,0.54331 -11.775,1.43434 -17,1.98007 -5.225,0.54573 -11.5763,1.67814 -14.114,2.51648 l -4.6139,1.52423 0.4439,7.21482 c 0.2441,3.96815 0.5448,7.6255 0.6681,8.12745 0.2528,1.0284 2.2454,1.58103 8.2373,2.28446 3.7859,0.44446 4.3054,0.87657 6.381,5.30793 4.69,10.01348 0.5387,21.90445 -8.6115,24.6667 -2.14,0.64602 -8.1659,1.2088 -13.3909,1.25064 -8.5635,0.0686 -10.1244,-0.21931 -15.8339,-2.92037 -7.6101,-3.60017 -16.5043,-12.29269 -19.3352,-18.8966 -3.1943,-7.45153 -5.8743,-22.79385 -5.2663,-30.14762 0.7473,-9.03824 2.9626,-17.43842 6.4501,-24.45777 3.3932,-6.82971 6.5676,-10.56229 13.4559,-15.82197 4.4755,-3.4173 5.3066,-3.67803 11.7229,-3.67803 4.1412,0 8.0516,0.59249 9.7679,1.48002 3.5175,1.81898 7.0386,6.14862 7.0386,8.65484 0,2.10753 1.0042,2.25915 6,0.90596 1.925,-0.52142 10.0414,-2.08126 18.0364,-3.46632 13.8673,-2.40235 45.2575,-10.67442 53.2136,-14.02299 4.5141,-1.89993 4.588,-2.71769 1.1898,-13.17384 -4.0816,-12.5592 -14.7952,-30.75899 -22.088,-37.52238 -11.218,-10.4035 -28.9999,-11.49816 -53.8518,-3.31511 -13.4523,4.4295 -16.8515,6.35497 -28.3817,16.07695 -6.1511,5.18649 -11.0663,10.48083 -15.3354,16.51819 -17.5087,24.76091 -23.495,43.95375 -22.5036,72.14956 0.4495,12.78446 0.8518,15.28991 3.9976,24.89429 4.1384,12.63537 15.6211,35.20664 21.1029,41.48149 4.8648,5.56859 14.5773,12.25114 21.1202,14.53146 6.7301,2.34554 15.3986,2.24299 25.4595,-0.30121 z m -1049.93927,3.14674 c -0.71765,-1.34093 -0.74436,-4.58683 -0.0844,-10.25 4.08279,-35.03249 6.19111,-52.13686 7.06137,-57.28765 0.55756,-3.3 2.35231,-13.65 3.98832,-23 3.83089,-21.89389 10.82888,-71.32401 11.39666,-80.49997 0.0851,-1.375 0.46141,-2.98314 0.83629,-3.57364 1.84351,-2.90385 53.22103,-23.76449 66.03156,-26.81057 2.52742,-0.60097 2.75,-0.41456 2.75,2.3031 0,4.00898 -2.49262,14.62573 -6.09623,25.96551 -1.64022,5.16143 -4.51061,15.73643 -6.37864,23.5 -1.86804,7.76358 -4.10456,16.09651 -4.97005,18.51758 -1.70641,4.77344 -6.78527,26.66907 -8.58849,37.02601 -0.61554,3.53541 -2.88389,14.00575 -5.04077,23.26741 -2.15689,9.26167 -5.67619,26.35714 -7.82066,37.98994 -4.30137,23.33302 -3.85718,22.41001 -13.10516,27.23227 -12.47836,6.50669 -37.6143,10.04008 -39.97985,5.62001 z m 23.37018,-5.7308 c 10.24811,-2.91034 17.21596,-6.10165 19.96528,-9.14421 1.31572,-1.45605 2.95737,-7.96119 5.64234,-22.35808 2.0827,-11.16751 5.42465,-27.3419 7.42656,-35.9431 2.00191,-8.6012 4.24958,-18.9512 4.99483,-23 2.38374,-12.95043 6.43603,-30.18356 8.50485,-36.16845 1.10403,-3.19386 3.38486,-11.43884 5.06852,-18.32218 1.68366,-6.88335 4.45751,-16.87019 6.16412,-22.19299 4.54339,-14.17056 6.66781,-22.17781 5.88404,-22.17781 -2.18219,0 -33.38204,11.81587 -46.04087,17.4364 -4.125,1.8315 -8.95734,3.64218 -10.73853,4.02374 -1.7812,0.38155 -3.48052,1.08527 -3.77628,1.56382 -0.29576,0.47855 -1.17049,7.76656 -1.94386,16.19558 -1.82345,19.874 -4.71398,40.75428 -9.59073,69.28043 -3.41165,19.95614 -5.8273,37.7965 -9.95217,73.5 -1.41549,12.25194 -1.76506,11.35936 4.1419,10.57577 2.82718,-0.37504 9.23968,-1.84605 14.25,-3.26892 z"
       id="path3104-7-4"
       inkscape:connector-curvature="0" />
  </g>
</svg>
